<?xml version="1.0" encoding="utf-8"?>
<svg width="300" height="50" viewBox="0 0 300 50" fill="none" xmlns="http://www.w3.org/2000/svg">
  <defs>
    <linearGradient id="gradient_1" gradientUnits="userSpaceOnUse" x1="150" y1="0" x2="150" y2="50">
      <stop offset="0.44" stop-color="#0F53D2" />
      <stop offset="1" stop-color="#09E2B7" />
    </linearGradient>
    <clipPath id="clip_path_2">
      <rect width="300" height="50" rx="20" />
    </clipPath>
  </defs>
  <g clip-path="url(#clip_path_2)">
    <rect width="300" height="50" fill="url(#gradient_1)" fill-rule="evenodd" />
    <path d="M5.54907 3.05566L7.19482 14.123L4.25366 14.123L4.09921 12.1338L3.06976 12.1338L2.89673 14.123L-0.0786133 14.123L1.3894 3.05566L5.54907 3.05566ZM4.0238 10.1719Q3.80537 8.29156 3.58545 5.52344Q3.14571 8.70226 3.03313 10.1719L4.0238 10.1719ZM14.1094 3.05566L14.1094 14.123L11.5869 14.123L10.0898 9.0918L10.0898 14.123L7.68359 14.123L7.68359 3.05566L10.0898 3.05566L11.7031 8.03906L11.7031 3.05566L14.1094 3.05566ZM22.7073 3.05566L24.353 14.123L21.4119 14.123L21.2574 12.1338L20.228 12.1338L20.0549 14.123L17.0796 14.123L18.5476 3.05566L22.7073 3.05566ZM21.182 10.1719Q20.9636 8.29156 20.7437 5.52344Q20.3039 8.70226 20.1913 10.1719L21.182 10.1719ZM24.8418 3.05566L27.7402 3.05566Q28.916 3.05566 29.5483 3.24023Q30.1807 3.4248 30.4985 3.77344Q30.8164 4.12207 30.9292 4.61768Q31.042 5.11328 31.042 6.15234L31.042 7.11621Q31.042 8.17578 30.8232 8.66113Q30.6045 9.14648 30.02 9.40625Q29.4355 9.66602 28.4922 9.66602L27.7197 9.66602L27.7197 14.123L24.8418 14.123L24.8418 3.05566ZM27.7197 4.94922L27.7197 7.76563Q27.8428 7.77246 27.9316 7.77246Q28.3281 7.77246 28.4819 7.57764Q28.6357 7.38281 28.6357 6.76758L28.6357 5.8584Q28.6357 5.29102 28.458 5.12012Q28.2803 4.94922 27.7197 4.94922ZM31.8691 3.05566L34.7676 3.05566Q35.9434 3.05566 36.5757 3.24023Q37.208 3.4248 37.5259 3.77344Q37.8438 4.12207 37.9565 4.61768Q38.0693 5.11328 38.0693 6.15234L38.0693 7.11621Q38.0693 8.17578 37.8506 8.66113Q37.6318 9.14648 37.0474 9.40625Q36.4629 9.66602 35.5195 9.66602L34.7471 9.66602L34.7471 14.123L31.8691 14.123L31.8691 3.05566ZM34.7471 4.94922L34.7471 7.76563Q34.8701 7.77246 34.959 7.77246Q35.3555 7.77246 35.5093 7.57764Q35.6631 7.38281 35.6631 6.76758L35.6631 5.8584Q35.6631 5.29102 35.4854 5.12012Q35.3076 4.94922 34.7471 4.94922ZM48.084 7.875L45.2061 7.875L45.2061 5.95143Q45.2061 5.11243 45.1138 4.90436Q45.0215 4.69629 44.707 4.69629Q44.3516 4.69629 44.2559 4.94922Q44.1602 5.20215 44.1602 6.04297L44.1602 11.1836Q44.1602 11.9902 44.2559 12.2363Q44.3516 12.4824 44.6865 12.4824Q45.0078 12.4824 45.1069 12.2357Q45.2061 11.9891 45.2061 11.0776L45.2061 9.68652L48.084 9.68652L48.084 10.1178Q48.084 11.8361 47.8413 12.5549Q47.5986 13.2738 46.7681 13.8146Q45.9375 14.3555 44.7207 14.3555Q43.4561 14.3555 42.6357 13.8975Q41.8154 13.4395 41.5488 12.6294Q41.2822 11.8193 41.2822 10.1924L41.2822 6.95898Q41.2822 5.7627 41.3643 5.16455Q41.4463 4.56641 41.853 4.0127Q42.2598 3.45899 42.981 3.14111Q43.7021 2.82324 44.6387 2.82324Q45.9102 2.82324 46.7373 3.31479Q47.5645 3.80634 47.8242 4.54018Q48.084 5.27403 48.084 6.82365L48.084 7.875ZM55.6924 9.53613Q55.6924 11.2041 55.6138 11.8979Q55.5352 12.5918 55.1216 13.166Q54.708 13.7402 54.0039 14.0479Q53.2998 14.3555 52.3633 14.3555Q51.4746 14.3555 50.7671 14.0649Q50.0596 13.7744 49.6289 13.1934Q49.1982 12.6123 49.1162 11.9287Q49.0342 11.2451 49.0342 9.53613L49.0342 7.64258Q49.0342 5.97461 49.1128 5.28076Q49.1914 4.58691 49.605 4.0127Q50.0186 3.43848 50.7227 3.13086Q51.4268 2.82324 52.3633 2.82324Q53.252 2.82324 53.9595 3.11377Q54.667 3.4043 55.0977 3.98535Q55.5283 4.56641 55.6104 5.25Q55.6924 5.93359 55.6924 7.64258L55.6924 9.53613ZM52.8145 5.89941Q52.8145 5.12695 52.729 4.91162Q52.6436 4.69629 52.377 4.69629Q52.1514 4.69629 52.0317 4.87061Q51.9121 5.04492 51.9121 5.89941L51.9121 11.0674Q51.9121 12.0313 51.9907 12.2568Q52.0693 12.4824 52.3564 12.4824Q52.6504 12.4824 52.7324 12.2227Q52.8145 11.9629 52.8145 10.9854L52.8145 5.89941ZM59.6436 3.05566L59.6436 11.9082L61.3936 11.9082L61.3936 14.123L56.7656 14.123L56.7656 3.05566L59.6436 3.05566ZM64.9688 3.05566L64.9688 11.9082L66.7188 11.9082L66.7188 14.123L62.0908 14.123L62.0908 3.05566L64.9688 3.05566ZM67.416 3.05566L72.2148 3.05566L72.2148 5.27051L70.2939 5.27051L70.2939 7.36914L72.0918 7.36914L72.0918 9.47461L70.2939 9.47461L70.2939 11.9082L72.4063 11.9082L72.4063 14.123L67.416 14.123L67.416 3.05566ZM79.9531 7.875L77.0752 7.875L77.0752 5.95143Q77.0752 5.11243 76.9829 4.90436Q76.8906 4.69629 76.5762 4.69629Q76.2207 4.69629 76.125 4.94922Q76.0293 5.20215 76.0293 6.04297L76.0293 11.1836Q76.0293 11.9902 76.125 12.2363Q76.2207 12.4824 76.5557 12.4824Q76.877 12.4824 76.9761 12.2357Q77.0752 11.9891 77.0752 11.0776L77.0752 9.68652L79.9531 9.68652L79.9531 10.1178Q79.9531 11.8361 79.7104 12.5549Q79.4678 13.2738 78.6372 13.8146Q77.8066 14.3555 76.5898 14.3555Q75.3252 14.3555 74.5049 13.8975Q73.6846 13.4395 73.418 12.6294Q73.1514 11.8193 73.1514 10.1924L73.1514 6.95898Q73.1514 5.7627 73.2334 5.16455Q73.3154 4.56641 73.7222 4.0127Q74.1289 3.45899 74.8501 3.14111Q75.5713 2.82324 76.5078 2.82324Q77.7793 2.82324 78.6064 3.31479Q79.4336 3.80634 79.6934 4.54018Q79.9531 5.27403 79.9531 6.82365L79.9531 7.875ZM86.7822 3.05566L86.7822 5.27051L85.0732 5.27051L85.0732 14.123L82.1953 14.123L82.1953 5.27051L80.4932 5.27051L80.4932 3.05566L86.7822 3.05566ZM90.3164 3.05566L90.3164 14.123L87.4385 14.123L87.4385 3.05566L90.3164 3.05566ZM98.0479 9.53613Q98.0479 11.2041 97.9692 11.8979Q97.8906 12.5918 97.4771 13.166Q97.0635 13.7402 96.3594 14.0479Q95.6553 14.3555 94.7188 14.3555Q93.8301 14.3555 93.1226 14.0649Q92.415 13.7744 91.9844 13.1934Q91.5537 12.6123 91.4717 11.9287Q91.3896 11.2451 91.3896 9.53613L91.3896 7.64258Q91.3896 5.97461 91.4683 5.28076Q91.5469 4.58691 91.9604 4.0127Q92.374 3.43848 93.0781 3.13086Q93.7822 2.82324 94.7188 2.82324Q95.6074 2.82324 96.3149 3.11377Q97.0225 3.4043 97.4531 3.98535Q97.8838 4.56641 97.9658 5.25Q98.0479 5.93359 98.0479 7.64258L98.0479 9.53613ZM95.1699 5.89941Q95.1699 5.12695 95.0845 4.91162Q94.999 4.69629 94.7324 4.69629Q94.5068 4.69629 94.3872 4.87061Q94.2676 5.04492 94.2676 5.89941L94.2676 11.0674Q94.2676 12.0313 94.3462 12.2568Q94.4248 12.4824 94.7119 12.4824Q95.0059 12.4824 95.0879 12.2227Q95.1699 11.9629 95.1699 10.9854L95.1699 5.89941ZM105.547 3.05566L105.547 14.123L103.024 14.123L101.527 9.0918L101.527 14.123L99.1211 14.123L99.1211 3.05566L101.527 3.05566L103.141 8.03906L103.141 3.05566L105.547 3.05566ZM112.69 3.05566L112.69 10.4521Q112.69 12.1133 112.656 12.5884Q112.622 13.0635 112.344 13.4463Q112.066 13.8291 111.591 13.9761Q111.116 14.123 110.16 14.123L108.719 14.123L108.719 12.1885Q108.979 12.209 109.095 12.209Q109.402 12.209 109.58 12.0586Q109.758 11.9082 109.785 11.6895Q109.813 11.4707 109.813 10.8418L109.813 3.05566L112.69 3.05566ZM120.347 3.05566L120.347 10.4521Q120.347 11.71 120.265 12.2192Q120.183 12.7285 119.779 13.2651Q119.376 13.8018 118.716 14.0786Q118.057 14.3555 117.161 14.3555Q116.17 14.3555 115.411 14.0273Q114.652 13.6992 114.276 13.1729Q113.9 12.6465 113.832 12.062Q113.764 11.4775 113.764 9.60449L113.764 3.05566L116.642 3.05566L116.642 11.3545Q116.642 12.0791 116.72 12.2808Q116.799 12.4824 117.038 12.4824Q117.312 12.4824 117.39 12.2603Q117.469 12.0381 117.469 11.2109L117.469 3.05566L120.347 3.05566ZM127.559 6.40527L124.886 6.40527L124.886 5.58496Q124.886 5.01074 124.783 4.85352Q124.681 4.69629 124.441 4.69629Q124.182 4.69629 124.048 4.90836Q123.915 5.12044 123.915 5.55142Q123.915 6.10545 124.065 6.38594Q124.208 6.66643 124.878 7.06259Q126.8 8.20313 127.299 8.93457Q127.798 9.66602 127.798 11.293Q127.798 12.4756 127.521 13.0361Q127.244 13.5967 126.451 13.9761Q125.658 14.3555 124.605 14.3555Q123.45 14.3555 122.633 13.918Q121.816 13.4805 121.563 12.8037Q121.311 12.127 121.311 10.8828L121.311 10.1582L123.983 10.1582L123.983 11.5049Q123.983 12.127 124.096 12.3047Q124.209 12.4824 124.496 12.4824Q124.783 12.4824 124.923 12.2568Q125.063 12.0313 125.063 11.5869Q125.063 10.6094 124.797 10.3086Q124.523 10.0078 123.45 9.30371Q122.377 8.59277 122.028 8.27148Q121.68 7.9502 121.451 7.38281Q121.222 6.81543 121.222 5.93359Q121.222 4.66211 121.546 4.07422Q121.871 3.48633 122.596 3.15479Q123.32 2.82324 124.346 2.82324Q125.467 2.82324 126.256 3.18555Q127.046 3.54785 127.302 4.09814Q127.559 4.64844 127.559 5.96777L127.559 6.40527ZM134.497 3.05566L134.497 5.27051L132.788 5.27051L132.788 14.123L129.91 14.123L129.91 5.27051L128.208 5.27051L128.208 3.05566L134.497 3.05566ZM137.621 3.05566L142.495 3.05566L142.495 5.27051L140.499 5.27051L140.499 7.36914L142.276 7.36914L142.276 9.47461L140.499 9.47461L140.499 14.123L137.621 14.123L137.621 3.05566ZM149.769 9.53613Q149.769 11.2041 149.69 11.8979Q149.611 12.5918 149.198 13.166Q148.784 13.7402 148.08 14.0479Q147.376 14.3555 146.439 14.3555Q145.551 14.3555 144.843 14.0649Q144.136 13.7744 143.705 13.1934Q143.274 12.6123 143.192 11.9287Q143.11 11.2451 143.11 9.53613L143.11 7.64258Q143.11 5.97461 143.189 5.28076Q143.268 4.58691 143.681 4.0127Q144.095 3.43848 144.799 3.13086Q145.503 2.82324 146.439 2.82324Q147.328 2.82324 148.036 3.11377Q148.743 3.4043 149.174 3.98535Q149.604 4.56641 149.687 5.25Q149.769 5.93359 149.769 7.64258L149.769 9.53613ZM146.891 5.89941Q146.891 5.12695 146.805 4.91162Q146.72 4.69629 146.453 4.69629Q146.228 4.69629 146.108 4.87061Q145.988 5.04492 145.988 5.89941L145.988 11.0674Q145.988 12.0313 146.067 12.2568Q146.146 12.4824 146.433 12.4824Q146.727 12.4824 146.809 12.2227Q146.891 11.9629 146.891 10.9854L146.891 5.89941ZM150.842 3.05566L152.879 3.05566Q154.916 3.05566 155.637 3.21289Q156.358 3.37012 156.813 4.01611Q157.268 4.66211 157.268 6.07715Q157.268 7.36914 156.946 7.81348Q156.625 8.25781 155.682 8.34668Q156.536 8.55859 156.83 8.91406Q157.124 9.26953 157.196 9.56689Q157.268 9.86426 157.268 11.2041L157.268 14.123L154.595 14.123L154.595 10.4453Q154.595 9.55664 154.455 9.34473Q154.314 9.13281 153.72 9.13281L153.72 14.123L150.842 14.123L150.842 3.05566ZM153.72 4.94922L153.72 7.41016Q154.205 7.41016 154.4 7.27686Q154.595 7.14355 154.595 6.41211L154.595 5.80371Q154.595 5.27734 154.407 5.11328Q154.219 4.94922 153.72 4.94922ZM166.981 3.05566L164.883 10.1172L164.883 14.123L162.217 14.123L162.217 10.1172L160.193 3.05566L162.837 3.05566Q163.457 6.29601 163.536 7.41699Q163.775 5.64574 164.338 3.05566L166.981 3.05566ZM174.05 9.53613Q174.05 11.2041 173.971 11.8979Q173.893 12.5918 173.479 13.166Q173.065 13.7402 172.361 14.0479Q171.657 14.3555 170.721 14.3555Q169.832 14.3555 169.125 14.0649Q168.417 13.7744 167.986 13.1934Q167.556 12.6123 167.474 11.9287Q167.392 11.2451 167.392 9.53613L167.392 7.64258Q167.392 5.97461 167.47 5.28076Q167.549 4.58691 167.962 4.0127Q168.376 3.43848 169.08 3.13086Q169.784 2.82324 170.721 2.82324Q171.609 2.82324 172.317 3.11377Q173.024 3.4043 173.455 3.98535Q173.886 4.56641 173.968 5.25Q174.05 5.93359 174.05 7.64258L174.05 9.53613ZM171.172 5.89941Q171.172 5.12695 171.086 4.91162Q171.001 4.69629 170.734 4.69629Q170.509 4.69629 170.389 4.87061Q170.27 5.04492 170.27 5.89941L170.27 11.0674Q170.27 12.0313 170.348 12.2568Q170.427 12.4824 170.714 12.4824Q171.008 12.4824 171.09 12.2227Q171.172 11.9629 171.172 10.9854L171.172 5.89941ZM181.665 3.05566L181.665 10.4521Q181.665 11.71 181.583 12.2192Q181.501 12.7285 181.098 13.2651Q180.694 13.8018 180.035 14.0786Q179.375 14.3555 178.479 14.3555Q177.488 14.3555 176.729 14.0273Q175.971 13.6992 175.595 13.1729Q175.219 12.6465 175.15 12.062Q175.082 11.4775 175.082 9.60449L175.082 3.05566L177.96 3.05566L177.96 11.3545Q177.96 12.0791 178.039 12.2808Q178.117 12.4824 178.356 12.4824Q178.63 12.4824 178.708 12.2603Q178.787 12.0381 178.787 11.2109L178.787 3.05566L181.665 3.05566ZM184.536 11.8672L184.536 14.123L182.451 14.123L182.451 11.8672L184.536 11.8672ZM187.12 11.8672L187.12 14.123L185.035 14.123L185.035 11.8672L187.12 11.8672ZM189.704 11.8672L189.704 14.123L187.619 14.123L187.619 11.8672L189.704 11.8672Z" fill="#FFFFFF" transform="translate(67 7)" />
    <path d="M0.681818 5.8125L0.681818 1.44886L3.02557 1.44886L3.02557 1.58523L0.818182 1.58523L0.818182 3.5625L2.82102 3.5625L2.82102 3.69886L0.818182 3.69886L0.818182 5.8125L0.681818 5.8125ZM5.01136 5.88068Q4.62571 5.88068 4.31889 5.65803Q4.01207 5.43537 3.83416 5.05078Q3.65625 4.66619 3.65625 4.18466Q3.65625 3.70099 3.83416 3.31747Q4.01207 2.93395 4.31889 2.71129Q4.62571 2.48864 5.01136 2.48864Q5.39702 2.48864 5.70277 2.71236Q6.00852 2.93608 6.1875 3.3196Q6.36648 3.70313 6.36648 4.18466Q6.36648 4.66619 6.18857 5.05078Q6.01065 5.43537 5.70384 5.65803Q5.39702 5.88068 5.01136 5.88068ZM5.01136 5.74432Q5.35866 5.74432 5.63459 5.53977Q5.91051 5.33523 6.07031 4.98153Q6.23011 4.62784 6.23011 4.18466Q6.23011 3.74148 6.06925 3.38885Q5.90838 3.03622 5.63352 2.83061Q5.35866 2.625 5.01136 2.625Q4.66619 2.625 4.39027 2.83061Q4.11435 3.03622 3.95348 3.38885Q3.79261 3.74148 3.79261 4.18466Q3.79261 4.62784 3.95241 4.98153Q4.11222 5.33523 4.38814 5.53977Q4.66406 5.74432 5.01136 5.74432ZM7.32955 5.8125L7.32955 2.53977L7.46591 2.53977L7.46591 3.05966L7.48295 3.05966Q7.59801 2.80398 7.86115 2.65057Q8.12429 2.49716 8.46307 2.49716L8.53125 2.49716L8.53125 2.63352L8.46307 2.63352Q8.1733 2.63352 7.94851 2.75923Q7.72372 2.88494 7.59482 3.10653Q7.46591 3.32813 7.46591 3.61364L7.46591 5.8125L7.32955 5.8125ZM12.196 5.88068Q11.7678 5.88068 11.4471 5.65696Q11.1264 5.43324 10.9496 5.04972Q10.7727 4.66619 10.7727 4.18466Q10.7727 3.70313 10.9506 3.3196Q11.1286 2.93608 11.4354 2.71236Q11.7422 2.48864 12.1278 2.48864Q12.5092 2.48864 12.8118 2.70064Q13.1143 2.91264 13.2901 3.2642Q13.4659 3.61577 13.4659 4.03977L13.4659 4.17614L10.9091 4.17614Q10.9112 4.6044 11.0614 4.96023Q11.2116 5.31605 11.4982 5.53018Q11.7848 5.74432 12.196 5.74432Q12.4986 5.74432 12.7042 5.63778Q12.9098 5.53125 13.0344 5.39276Q13.1591 5.25426 13.2188 5.15625L13.3295 5.23295Q13.2571 5.35653 13.1122 5.50781Q12.9673 5.65909 12.7415 5.76989Q12.5156 5.88068 12.196 5.88068ZM10.9134 4.03977L13.3295 4.03977Q13.3295 3.6456 13.1676 3.32493Q13.0057 3.00426 12.733 2.81463Q12.4602 2.625 12.1278 2.625Q11.8061 2.625 11.5408 2.8093Q11.2756 2.99361 11.1094 3.31321Q10.9432 3.63281 10.9134 4.03977ZM16.5767 2.53977L15.4091 5.8125L15.2216 5.8125L14.054 2.53977L14.1989 2.53977L15.3068 5.64205L15.3239 5.64205L16.4318 2.53977L16.5767 2.53977ZM18.571 5.88068Q18.1428 5.88068 17.8221 5.65696Q17.5014 5.43324 17.3246 5.04972Q17.1477 4.66619 17.1477 4.18466Q17.1477 3.70313 17.3256 3.3196Q17.5036 2.93608 17.8104 2.71236Q18.1172 2.48864 18.5028 2.48864Q18.8842 2.48864 19.1868 2.70064Q19.4893 2.91264 19.6651 3.2642Q19.8409 3.61577 19.8409 4.03977L19.8409 4.17614L17.2841 4.17614Q17.2862 4.6044 17.4364 4.96023Q17.5866 5.31605 17.8732 5.53018Q18.1598 5.74432 18.571 5.74432Q18.8736 5.74432 19.0792 5.63778Q19.2848 5.53125 19.4094 5.39276Q19.5341 5.25426 19.5938 5.15625L19.7045 5.23295Q19.6321 5.35653 19.4872 5.50781Q19.3423 5.65909 19.1165 5.76989Q18.8906 5.88068 18.571 5.88068ZM17.2884 4.03977L19.7045 4.03977Q19.7045 3.6456 19.5426 3.32493Q19.3807 3.00426 19.108 2.81463Q18.8352 2.625 18.5028 2.625Q18.1811 2.625 17.9158 2.8093Q17.6506 2.99361 17.4844 3.31321Q17.3182 3.63281 17.2884 4.03977ZM20.804 5.8125L20.804 2.53977L20.9403 2.53977L20.9403 3.05966L20.9574 3.05966Q21.0724 2.80398 21.3356 2.65057Q21.5987 2.49716 21.9375 2.49716L22.0057 2.49716L22.0057 2.63352L21.9375 2.63352Q21.6477 2.63352 21.4229 2.75923Q21.1982 2.88494 21.0693 3.10653Q20.9403 3.32813 20.9403 3.61364L20.9403 5.8125L20.804 5.8125ZM23.0071 7.03977Q22.8367 7.03977 22.6406 6.95455L22.6918 6.83523Q23.3331 7.11009 23.6037 6.35795L23.7784 5.87216L22.5852 2.53977L22.7301 2.53977L23.8381 5.64205L23.8551 5.64205L24.9631 2.53977L25.108 2.53977L23.7315 6.40909Q23.5057 7.03977 23.0071 7.03977ZM27.0341 5.88068Q26.6484 5.88068 26.3416 5.65803Q26.0348 5.43537 25.8569 5.05078Q25.679 4.66619 25.679 4.18466Q25.679 3.70099 25.8569 3.31747Q26.0348 2.93395 26.3416 2.71129Q26.6484 2.48864 27.0341 2.48864Q27.4197 2.48864 27.7255 2.71236Q28.0313 2.93608 28.2102 3.3196Q28.3892 3.70313 28.3892 4.18466Q28.3892 4.66619 28.2113 5.05078Q28.0334 5.43537 27.7266 5.65803Q27.4197 5.88068 27.0341 5.88068ZM27.0341 5.74432Q27.3814 5.74432 27.6573 5.53977Q27.9332 5.33523 28.093 4.98153Q28.2528 4.62784 28.2528 4.18466Q28.2528 3.74148 28.092 3.38885Q27.9311 3.03622 27.6563 2.83061Q27.3814 2.625 27.0341 2.625Q26.6889 2.625 26.413 2.83061Q26.1371 3.03622 25.9762 3.38885Q25.8153 3.74148 25.8153 4.18466Q25.8153 4.62784 25.9751 4.98153Q26.1349 5.33523 26.4109 5.53977Q26.6868 5.74432 27.0341 5.74432ZM29.4886 3.61364L29.4886 5.8125L29.3523 5.8125L29.3523 2.53977L29.4886 2.53977L29.4886 3.05966L29.5057 3.05966Q29.6207 2.80398 29.8839 2.65057Q30.147 2.49716 30.4858 2.49716Q30.8139 2.49716 31.0653 2.63991Q31.3168 2.78267 31.4595 3.03409Q31.6023 3.28551 31.6023 3.61364L31.6023 5.8125L31.4659 5.8125L31.4659 3.61364Q31.4659 3.17898 31.1932 2.90625Q30.9205 2.63352 30.4858 2.63352Q30.196 2.63352 29.9712 2.75923Q29.7465 2.88494 29.6175 3.10653Q29.4886 3.32813 29.4886 3.61364ZM33.9886 5.88068Q33.5604 5.88068 33.2397 5.65696Q32.919 5.43324 32.7422 5.04972Q32.5653 4.66619 32.5653 4.18466Q32.5653 3.70313 32.7433 3.3196Q32.9212 2.93608 33.228 2.71236Q33.5348 2.48864 33.9205 2.48864Q34.3018 2.48864 34.6044 2.70064Q34.907 2.91264 35.0827 3.2642Q35.2585 3.61577 35.2585 4.03977L35.2585 4.17614L32.7017 4.17614Q32.7038 4.6044 32.854 4.96023Q33.0043 5.31605 33.2908 5.53018Q33.5774 5.74432 33.9886 5.74432Q34.2912 5.74432 34.4968 5.63778Q34.7024 5.53125 34.8271 5.39276Q34.9517 5.25426 35.0114 5.15625L35.1222 5.23295Q35.0497 5.35653 34.9048 5.50781Q34.7599 5.65909 34.5341 5.76989Q34.3082 5.88068 33.9886 5.88068ZM32.706 4.03977L35.1222 4.03977Q35.1222 3.6456 34.9602 3.32493Q34.7983 3.00426 34.5256 2.81463Q34.2528 2.625 33.9205 2.625Q33.5987 2.625 33.3335 2.8093Q33.0682 2.99361 32.902 3.31321Q32.7358 3.63281 32.706 4.03977ZM36.4006 5.83807Q36.3367 5.83807 36.2919 5.79332Q36.2472 5.74858 36.2472 5.68466Q36.2472 5.62074 36.2919 5.57599Q36.3367 5.53125 36.4006 5.53125Q36.4645 5.53125 36.5092 5.57599Q36.554 5.62074 36.554 5.68466Q36.554 5.74858 36.5092 5.79332Q36.4645 5.83807 36.4006 5.83807ZM37.9176 5.83807Q37.8537 5.83807 37.8089 5.79332Q37.7642 5.74858 37.7642 5.68466Q37.7642 5.62074 37.8089 5.57599Q37.8537 5.53125 37.9176 5.53125Q37.9815 5.53125 38.0263 5.57599Q38.071 5.62074 38.071 5.68466Q38.071 5.74858 38.0263 5.79332Q37.9815 5.83807 37.9176 5.83807ZM39.017 5.8125L38.8722 5.8125L40.4318 1.44886L40.6193 1.44886L42.179 5.8125L42.0341 5.8125L41.5057 4.33807L39.5455 4.33807L39.017 5.8125ZM39.5923 4.2017L41.4588 4.2017L40.5341 1.61932L40.517 1.61932L39.5923 4.2017ZM45.7074 5.88068Q45.3196 5.88068 45.0362 5.65803Q44.7528 5.43537 44.5994 5.05185Q44.446 4.66832 44.446 4.18466Q44.446 3.70313 44.6016 3.3196Q44.7571 2.93608 45.0405 2.71236Q45.3239 2.48864 45.7074 2.48864Q46.0973 2.48864 46.3924 2.72727Q46.6875 2.96591 46.8153 3.375L46.8324 3.375L46.8324 1.44886L46.9688 1.44886L46.9688 5.8125L46.8324 5.8125L46.8324 4.99432L46.8153 4.99432Q46.6811 5.39915 46.3913 5.63991Q46.1016 5.88068 45.7074 5.88068ZM45.7074 5.74432Q46.0547 5.74432 46.3072 5.53871Q46.5597 5.3331 46.696 4.98047Q46.8324 4.62784 46.8324 4.18466Q46.8324 3.74148 46.695 3.38885Q46.5575 3.03622 46.305 2.83061Q46.0526 2.625 45.7074 2.625Q45.3622 2.625 45.1097 2.83061Q44.8572 3.03622 44.7198 3.38885Q44.5824 3.74148 44.5824 4.18466Q44.5824 4.62784 44.7188 4.98047Q44.8551 5.3331 45.1076 5.53871Q45.3601 5.74432 45.7074 5.74432ZM49.4574 5.88068Q49.0291 5.88068 48.7085 5.65696Q48.3878 5.43324 48.2109 5.04972Q48.0341 4.66619 48.0341 4.18466Q48.0341 3.70313 48.212 3.3196Q48.3899 2.93608 48.6967 2.71236Q49.0036 2.48864 49.3892 2.48864Q49.7706 2.48864 50.0732 2.70064Q50.3757 2.91264 50.5515 3.2642Q50.7273 3.61577 50.7273 4.03977L50.7273 4.17614L48.1705 4.17614Q48.1726 4.6044 48.3228 4.96023Q48.473 5.31605 48.7596 5.53018Q49.0462 5.74432 49.4574 5.74432Q49.7599 5.74432 49.9656 5.63778Q50.1712 5.53125 50.2958 5.39276Q50.4205 5.25426 50.4801 5.15625L50.5909 5.23295Q50.5185 5.35653 50.3736 5.50781Q50.2287 5.65909 50.0028 5.76989Q49.777 5.88068 49.4574 5.88068ZM48.1747 4.03977L50.5909 4.03977Q50.5909 3.6456 50.429 3.32493Q50.267 3.00426 49.9943 2.81463Q49.7216 2.625 49.3892 2.625Q49.0675 2.625 48.8022 2.8093Q48.5369 2.99361 48.3707 3.31321Q48.2045 3.63281 48.1747 4.03977ZM53.8381 2.53977L52.6705 5.8125L52.483 5.8125L51.3153 2.53977L51.4602 2.53977L52.5682 5.64205L52.5852 5.64205L53.6932 2.53977L53.8381 2.53977ZM55.8324 5.88068Q55.4041 5.88068 55.0835 5.65696Q54.7628 5.43324 54.5859 5.04972Q54.4091 4.66619 54.4091 4.18466Q54.4091 3.70313 54.587 3.3196Q54.7649 2.93608 55.0717 2.71236Q55.3786 2.48864 55.7642 2.48864Q56.1456 2.48864 56.4482 2.70064Q56.7507 2.91264 56.9265 3.2642Q57.1023 3.61577 57.1023 4.03977L57.1023 4.17614L54.5455 4.17614Q54.5476 4.6044 54.6978 4.96023Q54.848 5.31605 55.1346 5.53018Q55.4212 5.74432 55.8324 5.74432Q56.1349 5.74432 56.3406 5.63778Q56.5462 5.53125 56.6708 5.39276Q56.7955 5.25426 56.8551 5.15625L56.9659 5.23295Q56.8935 5.35653 56.7486 5.50781Q56.6037 5.65909 56.3778 5.76989Q56.152 5.88068 55.8324 5.88068ZM54.5497 4.03977L56.9659 4.03977Q56.9659 3.6456 56.804 3.32493Q56.642 3.00426 56.3693 2.81463Q56.0966 2.625 55.7642 2.625Q55.4425 2.625 55.1772 2.8093Q54.9119 2.99361 54.7457 3.31321Q54.5795 3.63281 54.5497 4.03977ZM58.2017 1.44886L58.2017 5.8125L58.0653 5.8125L58.0653 1.44886L58.2017 1.44886ZM60.5199 5.88068Q60.1342 5.88068 59.8274 5.65803Q59.5206 5.43537 59.3427 5.05078Q59.1648 4.66619 59.1648 4.18466Q59.1648 3.70099 59.3427 3.31747Q59.5206 2.93395 59.8274 2.71129Q60.1342 2.48864 60.5199 2.48864Q60.9055 2.48864 61.2113 2.71236Q61.517 2.93608 61.696 3.3196Q61.875 3.70313 61.875 4.18466Q61.875 4.66619 61.6971 5.05078Q61.5192 5.43537 61.2124 5.65803Q60.9055 5.88068 60.5199 5.88068ZM60.5199 5.74432Q60.8672 5.74432 61.1431 5.53977Q61.419 5.33523 61.5788 4.98153Q61.7386 4.62784 61.7386 4.18466Q61.7386 3.74148 61.5778 3.38885Q61.4169 3.03622 61.142 2.83061Q60.8672 2.625 60.5199 2.625Q60.1747 2.625 59.8988 2.83061Q59.6229 3.03622 59.462 3.38885Q59.3011 3.74148 59.3011 4.18466Q59.3011 4.62784 59.4609 4.98153Q59.6207 5.33523 59.8967 5.53977Q60.1726 5.74432 60.5199 5.74432ZM62.8381 7.03977L62.8381 2.53977L62.9744 2.53977L62.9744 3.375L62.9915 3.375Q63.1236 2.96804 63.4144 2.72834Q63.7053 2.48864 64.0994 2.48864Q64.4872 2.48864 64.7695 2.71129Q65.0518 2.93395 65.2063 3.31747Q65.3608 3.70099 65.3608 4.18466Q65.3608 4.66619 65.2053 5.04972Q65.0497 5.43324 64.7663 5.65696Q64.483 5.88068 64.0994 5.88068Q63.7095 5.88068 63.4144 5.64205Q63.1193 5.40341 62.9915 4.99432L62.9744 4.99432L62.9744 7.03977L62.8381 7.03977ZM62.9744 4.18466Q62.9744 4.62784 63.1119 4.98047Q63.2493 5.3331 63.5018 5.53871Q63.7543 5.74432 64.0994 5.74432Q64.4446 5.74432 64.6971 5.53871Q64.9496 5.3331 65.087 4.98047Q65.2244 4.62784 65.2244 4.18466Q65.2244 3.74148 65.0881 3.38885Q64.9517 3.03622 64.6992 2.83061Q64.4467 2.625 64.0994 2.625Q63.7521 2.625 63.4996 2.83061Q63.2472 3.03622 63.1108 3.38885Q62.9744 3.74148 62.9744 4.18466ZM67.5511 5.88068Q67.1229 5.88068 66.8022 5.65696Q66.4815 5.43324 66.3047 5.04972Q66.1278 4.66619 66.1278 4.18466Q66.1278 3.70313 66.3058 3.3196Q66.4837 2.93608 66.7905 2.71236Q67.0973 2.48864 67.483 2.48864Q67.8643 2.48864 68.1669 2.70064Q68.4695 2.91264 68.6452 3.2642Q68.821 3.61577 68.821 4.03977L68.821 4.17614L66.2642 4.17614Q66.2663 4.6044 66.4166 4.96023Q66.5668 5.31605 66.8533 5.53018Q67.1399 5.74432 67.5511 5.74432Q67.8537 5.74432 68.0593 5.63778Q68.2649 5.53125 68.3896 5.39276Q68.5142 5.25426 68.5739 5.15625L68.6847 5.23295Q68.6122 5.35653 68.4673 5.50781Q68.3224 5.65909 68.0966 5.76989Q67.8707 5.88068 67.5511 5.88068ZM66.2685 4.03977L68.6847 4.03977Q68.6847 3.6456 68.5227 3.32493Q68.3608 3.00426 68.0881 2.81463Q67.8153 2.625 67.483 2.625Q67.1612 2.625 66.896 2.8093Q66.6307 2.99361 66.4645 3.31321Q66.2983 3.63281 66.2685 4.03977ZM69.7841 5.8125L69.7841 2.53977L69.9205 2.53977L69.9205 3.05966L69.9375 3.05966Q70.0526 2.80398 70.3157 2.65057Q70.5788 2.49716 70.9176 2.49716L70.9858 2.49716L70.9858 2.63352L70.9176 2.63352Q70.6278 2.63352 70.4031 2.75923Q70.1783 2.88494 70.0494 3.10653Q69.9205 3.32813 69.9205 3.61364L69.9205 5.8125L69.7841 5.8125ZM71.7528 5.21591L71.7102 5.4375Q71.6719 5.64418 71.6207 5.9201Q71.5696 6.19602 71.5163 6.45597Q71.4631 6.71591 71.4119 6.87784L71.3011 6.87784Q71.3459 6.63494 71.4173 6.25994Q71.4886 5.88494 71.5653 5.45455L71.608 5.21591L71.7528 5.21591ZM76.2337 2.8125L76.0888 2.8125Q76.0483 2.59517 75.9311 2.36932Q75.8139 2.14347 75.62 1.9517Q75.4261 1.75994 75.1619 1.64276Q74.8977 1.52557 74.5632 1.52557Q74.1158 1.52557 73.7354 1.76953Q73.3551 2.01349 73.1239 2.48331Q72.8928 2.95312 72.8928 3.63068Q72.8928 4.31676 73.1239 4.78551Q73.3551 5.25426 73.7354 5.49503Q74.1158 5.7358 74.5632 5.7358Q74.8977 5.7358 75.1619 5.61967Q75.4261 5.50355 75.62 5.31286Q75.8139 5.12216 75.9311 4.89524Q76.0483 4.66832 76.0888 4.44886L76.2337 4.44886Q76.1932 4.67898 76.0717 4.9272Q75.9503 5.17543 75.7436 5.39063Q75.5369 5.60582 75.2429 5.73899Q74.9489 5.87216 74.5632 5.87216Q74.0263 5.87216 73.6193 5.59091Q73.2124 5.30966 72.9844 4.80469Q72.7564 4.29972 72.7564 3.63068Q72.7564 2.96165 72.9844 2.45668Q73.2124 1.9517 73.6193 1.67045Q74.0263 1.3892 74.5632 1.3892Q74.9489 1.3892 75.2429 1.52131Q75.5369 1.65341 75.7436 1.86754Q75.9503 2.08168 76.0717 2.3299Q76.1932 2.57813 76.2337 2.8125ZM78.3984 5.88068Q78.0128 5.88068 77.706 5.65803Q77.3992 5.43537 77.2212 5.05078Q77.0433 4.66619 77.0433 4.18466Q77.0433 3.70099 77.2212 3.31747Q77.3992 2.93395 77.706 2.71129Q78.0128 2.48864 78.3984 2.48864Q78.7841 2.48864 79.0899 2.71236Q79.3956 2.93608 79.5746 3.3196Q79.7536 3.70313 79.7536 4.18466Q79.7536 4.66619 79.5756 5.05078Q79.3977 5.43537 79.0909 5.65803Q78.7841 5.88068 78.3984 5.88068ZM78.3984 5.74432Q78.7457 5.74432 79.0217 5.53977Q79.2976 5.33523 79.4574 4.98153Q79.6172 4.62784 79.6172 4.18466Q79.6172 3.74148 79.4563 3.38885Q79.2955 3.03622 79.0206 2.83061Q78.7457 2.625 78.3984 2.625Q78.0533 2.625 77.7774 2.83061Q77.5014 3.03622 77.3406 3.38885Q77.1797 3.74148 77.1797 4.18466Q77.1797 4.62784 77.3395 4.98153Q77.4993 5.33523 77.7752 5.53977Q78.0511 5.74432 78.3984 5.74432ZM80.853 3.61364L80.853 5.8125L80.7166 5.8125L80.7166 2.53977L80.853 2.53977L80.853 3.05966L80.87 3.05966Q80.9851 2.80398 81.2482 2.65057Q81.5114 2.49716 81.8501 2.49716Q82.1783 2.49716 82.4297 2.63991Q82.6811 2.78267 82.8239 3.03409Q82.9666 3.28551 82.9666 3.61364L82.9666 5.8125L82.8303 5.8125L82.8303 3.61364Q82.8303 3.17898 82.5575 2.90625Q82.2848 2.63352 81.8501 2.63352Q81.5604 2.63352 81.3356 2.75923Q81.1108 2.88494 80.9819 3.10653Q80.853 3.32813 80.853 3.61364ZM85.1484 2.53977L85.1484 2.67614L84.4666 2.67614L84.4666 5.12216Q84.4666 5.40767 84.6509 5.57173Q84.8352 5.7358 85.0803 5.7358Q85.1868 5.7358 85.3018 5.69318L85.3445 5.82102Q85.2805 5.84446 85.2188 5.85831Q85.157 5.87216 85.0803 5.87216Q84.7777 5.87216 84.554 5.66974Q84.3303 5.46733 84.3303 5.12216L84.3303 2.67614L83.853 2.67614L83.853 2.53977L84.3303 2.53977L84.3303 1.75568L84.4666 1.75568L84.4666 2.53977L85.1484 2.53977ZM87.407 5.88068Q86.9787 5.88068 86.658 5.65696Q86.3374 5.43324 86.1605 5.04972Q85.9837 4.66619 85.9837 4.18466Q85.9837 3.70313 86.1616 3.3196Q86.3395 2.93608 86.6463 2.71236Q86.9531 2.48864 87.3388 2.48864Q87.7202 2.48864 88.0227 2.70064Q88.3253 2.91264 88.5011 3.2642Q88.6768 3.61577 88.6768 4.03977L88.6768 4.17614L86.12 4.17614Q86.1222 4.6044 86.2724 4.96023Q86.4226 5.31605 86.7092 5.53018Q86.9957 5.74432 87.407 5.74432Q87.7095 5.74432 87.9151 5.63778Q88.1207 5.53125 88.2454 5.39276Q88.37 5.25426 88.4297 5.15625L88.5405 5.23295Q88.468 5.35653 88.3232 5.50781Q88.1783 5.65909 87.9524 5.76989Q87.7266 5.88068 87.407 5.88068ZM86.1243 4.03977L88.5405 4.03977Q88.5405 3.6456 88.3786 3.32493Q88.2166 3.00426 87.9439 2.81463Q87.6712 2.625 87.3388 2.625Q87.017 2.625 86.7518 2.8093Q86.4865 2.99361 86.3203 3.31321Q86.1541 3.63281 86.1243 4.03977ZM89.7763 3.61364L89.7763 5.8125L89.6399 5.8125L89.6399 2.53977L89.7763 2.53977L89.7763 3.05966L89.7933 3.05966Q89.9084 2.80398 90.1715 2.65057Q90.4347 2.49716 90.7734 2.49716Q91.1016 2.49716 91.353 2.63991Q91.6044 2.78267 91.7472 3.03409Q91.8899 3.28551 91.8899 3.61364L91.8899 5.8125L91.7536 5.8125L91.7536 3.61364Q91.7536 3.17898 91.4808 2.90625Q91.2081 2.63352 90.7734 2.63352Q90.4837 2.63352 90.2589 2.75923Q90.0341 2.88494 89.9052 3.10653Q89.7763 3.32813 89.7763 3.61364ZM94.0717 2.53977L94.0717 2.67614L93.3899 2.67614L93.3899 5.12216Q93.3899 5.40767 93.5742 5.57173Q93.7585 5.7358 94.0035 5.7358Q94.1101 5.7358 94.2251 5.69318L94.2678 5.82102Q94.2038 5.84446 94.142 5.85831Q94.0803 5.87216 94.0035 5.87216Q93.701 5.87216 93.4773 5.66974Q93.2535 5.46733 93.2535 5.12216L93.2535 2.67614L92.7763 2.67614L92.7763 2.53977L93.2535 2.53977L93.2535 1.75568L93.3899 1.75568L93.3899 2.53977L94.0717 2.53977ZM98.0007 5.88068Q97.6044 5.88068 97.2944 5.65803Q96.9844 5.43537 96.8065 5.05185Q96.6285 4.66832 96.6285 4.18466Q96.6285 3.70526 96.8054 3.32067Q96.9822 2.93608 97.2923 2.71236Q97.6023 2.48864 98.0007 2.48864Q98.2947 2.48864 98.5408 2.61541Q98.7869 2.74219 98.9531 2.96911Q99.1193 3.19602 99.1683 3.49432L99.0234 3.49432Q98.9574 3.10866 98.6729 2.86683Q98.3885 2.625 98.0007 2.625Q97.6491 2.625 97.369 2.82848Q97.0888 3.03196 96.9268 3.38459Q96.7649 3.73722 96.7649 4.18466Q96.7649 4.61932 96.9215 4.97301Q97.0781 5.3267 97.3572 5.53551Q97.6364 5.74432 98.0007 5.74432Q98.3928 5.74432 98.6825 5.50142Q98.9723 5.25852 99.032 4.85795L99.1768 4.85795Q99.13 5.1669 98.9638 5.39702Q98.7976 5.62713 98.5483 5.75391Q98.299 5.88068 98.0007 5.88068ZM100.14 5.8125L100.14 2.53977L100.276 2.53977L100.276 3.05966L100.293 3.05966Q100.408 2.80398 100.672 2.65057Q100.935 2.49716 101.273 2.49716L101.342 2.49716L101.342 2.63352L101.273 2.63352Q100.984 2.63352 100.759 2.75923Q100.534 2.88494 100.405 3.10653Q100.276 3.32813 100.276 3.61364L100.276 5.8125L100.14 5.8125ZM103.217 5.88068Q102.788 5.88068 102.468 5.65696Q102.147 5.43324 101.97 5.04972Q101.793 4.66619 101.793 4.18466Q101.793 3.70313 101.971 3.3196Q102.149 2.93608 102.456 2.71236Q102.763 2.48864 103.148 2.48864Q103.53 2.48864 103.832 2.70064Q104.135 2.91264 104.311 3.2642Q104.487 3.61577 104.487 4.03977L104.487 4.17614L101.93 4.17614Q101.932 4.6044 102.082 4.96023Q102.232 5.31605 102.519 5.53018Q102.805 5.74432 103.217 5.74432Q103.519 5.74432 103.725 5.63778Q103.93 5.53125 104.055 5.39276Q104.18 5.25426 104.239 5.15625L104.35 5.23295Q104.278 5.35653 104.133 5.50781Q103.988 5.65909 103.762 5.76989Q103.536 5.88068 103.217 5.88068ZM101.934 4.03977L104.35 4.03977Q104.35 3.6456 104.188 3.32493Q104.026 3.00426 103.754 2.81463Q103.481 2.625 103.148 2.625Q102.827 2.625 102.561 2.8093Q102.296 2.99361 102.13 3.31321Q101.964 3.63281 101.934 4.03977ZM106.268 5.88068Q105.999 5.88068 105.772 5.76989Q105.545 5.65909 105.408 5.44602Q105.271 5.23295 105.271 4.92614Q105.271 4.70455 105.37 4.52024Q105.469 4.33594 105.736 4.2049Q106.004 4.07386 106.506 4.0142Q106.732 3.98864 106.933 3.95455Q107.133 3.92045 107.259 3.85227Q107.384 3.78409 107.384 3.65625L107.384 3.46023Q107.384 3.0831 107.131 2.85405Q106.877 2.625 106.455 2.625Q106.11 2.625 105.852 2.77734Q105.594 2.92969 105.492 3.20455L105.364 3.15341Q105.479 2.84659 105.776 2.66761Q106.072 2.48864 106.455 2.48864Q106.954 2.48864 107.237 2.76669Q107.521 3.04474 107.521 3.46023L107.521 5.8125L107.384 5.8125L107.384 5.14773L107.367 5.14773Q107.214 5.48011 106.926 5.6804Q106.638 5.88068 106.268 5.88068ZM106.268 5.74432Q106.579 5.74432 106.832 5.57706Q107.086 5.4098 107.235 5.11044Q107.384 4.81108 107.384 4.41477L107.384 3.92045Q107.263 4.00994 107.051 4.06001Q106.839 4.11009 106.558 4.14205Q106.119 4.19318 105.867 4.29759Q105.616 4.40199 105.511 4.55966Q105.407 4.71733 105.407 4.92614Q105.407 5.29688 105.655 5.5206Q105.903 5.74432 106.268 5.74432ZM109.719 2.53977L109.719 2.67614L109.038 2.67614L109.038 5.12216Q109.038 5.40767 109.222 5.57173Q109.406 5.7358 109.651 5.7358Q109.758 5.7358 109.873 5.69318L109.915 5.82102Q109.852 5.84446 109.79 5.85831Q109.728 5.87216 109.651 5.87216Q109.349 5.87216 109.125 5.66974Q108.901 5.46733 108.901 5.12216L108.901 2.67614L108.424 2.67614L108.424 2.53977L108.901 2.53977L108.901 1.75568L109.038 1.75568L109.038 2.53977L109.719 2.53977ZM111.91 5.88068Q111.524 5.88068 111.217 5.65803Q110.911 5.43537 110.733 5.05078Q110.555 4.66619 110.555 4.18466Q110.555 3.70099 110.733 3.31747Q110.911 2.93395 111.217 2.71129Q111.524 2.48864 111.91 2.48864Q112.295 2.48864 112.601 2.71236Q112.907 2.93608 113.086 3.3196Q113.265 3.70313 113.265 4.18466Q113.265 4.66619 113.087 5.05078Q112.909 5.43537 112.602 5.65803Q112.295 5.88068 111.91 5.88068ZM111.91 5.74432Q112.257 5.74432 112.533 5.53977Q112.809 5.33523 112.969 4.98153Q113.129 4.62784 113.129 4.18466Q113.129 3.74148 112.968 3.38885Q112.807 3.03622 112.532 2.83061Q112.257 2.625 111.91 2.625Q111.565 2.625 111.289 2.83061Q111.013 3.03622 110.852 3.38885Q110.691 3.74148 110.691 4.18466Q110.691 4.62784 110.851 4.98153Q111.011 5.33523 111.287 5.53977Q111.563 5.74432 111.91 5.74432ZM114.228 5.8125L114.228 2.53977L114.364 2.53977L114.364 3.05966L114.381 3.05966Q114.496 2.80398 114.76 2.65057Q115.023 2.49716 115.362 2.49716L115.43 2.49716L115.43 2.63352L115.362 2.63352Q115.072 2.63352 114.847 2.75923Q114.622 2.88494 114.493 3.10653Q114.364 3.32813 114.364 3.61364L114.364 5.8125L114.228 5.8125ZM116.197 5.21591L116.154 5.4375Q116.116 5.64418 116.065 5.9201Q116.013 6.19602 115.96 6.45597Q115.907 6.71591 115.856 6.87784L115.745 6.87784Q115.79 6.63494 115.861 6.25994Q115.933 5.88494 116.009 5.45455L116.052 5.21591L116.197 5.21591ZM117.447 5.8125L117.447 1.44886L118.811 1.44886Q119.361 1.44886 119.67 1.74503Q119.979 2.04119 119.979 2.55682Q119.979 2.94247 119.805 3.22479Q119.631 3.5071 119.314 3.58807L119.314 3.60511Q119.55 3.62429 119.74 3.76918Q119.93 3.91406 120.039 4.1527Q120.149 4.39134 120.149 4.69602Q120.149 5.20099 119.834 5.50675Q119.518 5.8125 118.956 5.8125L117.447 5.8125ZM117.584 5.67614L118.956 5.67614Q119.435 5.67614 119.724 5.40661Q120.013 5.13707 120.013 4.69602Q120.013 4.39347 119.876 4.16122Q119.74 3.92898 119.502 3.79688Q119.265 3.66477 118.956 3.66477L117.584 3.66477L117.584 5.67614ZM117.584 3.52841L118.956 3.52841Q119.254 3.52841 119.45 3.39418Q119.646 3.25994 119.744 3.03835Q119.842 2.81676 119.842 2.55682Q119.842 2.09233 119.565 1.83878Q119.288 1.58523 118.811 1.58523L117.584 1.58523L117.584 3.52841ZM123.303 4.73864L123.303 2.53977L123.439 2.53977L123.439 5.8125L123.303 5.8125L123.303 5.29261L123.286 5.29261Q123.17 5.5483 122.907 5.7017Q122.644 5.85511 122.305 5.85511Q121.977 5.85511 121.726 5.71236Q121.474 5.5696 121.332 5.31818Q121.189 5.06676 121.189 4.73864L121.189 2.53977L121.325 2.53977L121.325 4.73864Q121.325 5.1733 121.598 5.44602Q121.871 5.71875 122.305 5.71875Q122.595 5.71875 122.82 5.59304Q123.045 5.46733 123.174 5.24574Q123.303 5.02415 123.303 4.73864ZM126.558 3.23011L126.422 3.2642Q126.222 2.625 125.553 2.625Q125.161 2.625 124.918 2.82422Q124.675 3.02344 124.675 3.34943Q124.675 3.87358 125.339 4.03977L125.851 4.16761Q126.211 4.2571 126.397 4.47017Q126.584 4.68324 126.584 4.9858Q126.584 5.38636 126.279 5.63352Q125.974 5.88068 125.493 5.88068Q125.056 5.88068 124.779 5.66761Q124.502 5.45455 124.419 5.0625L124.555 5.02841Q124.702 5.74432 125.493 5.74432Q125.919 5.74432 126.183 5.53551Q126.447 5.3267 126.447 4.9858Q126.447 4.46165 125.817 4.30398L125.305 4.17614Q124.928 4.08239 124.733 3.86932Q124.538 3.65625 124.538 3.34943Q124.538 2.96378 124.822 2.72621Q125.105 2.48864 125.553 2.48864Q126.317 2.48864 126.558 3.23011ZM127.572 5.8125L127.572 2.53977L127.709 2.53977L127.709 5.8125L127.572 5.8125ZM127.641 1.94318Q127.585 1.94318 127.545 1.9027Q127.504 1.86222 127.504 1.80682Q127.504 1.75142 127.545 1.71094Q127.585 1.67045 127.641 1.67045Q127.696 1.67045 127.737 1.71094Q127.777 1.75142 127.777 1.80682Q127.777 1.86222 127.737 1.9027Q127.696 1.94318 127.641 1.94318ZM129.021 3.61364L129.021 5.8125L128.885 5.8125L128.885 2.53977L129.021 2.53977L129.021 3.05966L129.038 3.05966Q129.153 2.80398 129.417 2.65057Q129.68 2.49716 130.018 2.49716Q130.347 2.49716 130.598 2.63991Q130.849 2.78267 130.992 3.03409Q131.135 3.28551 131.135 3.61364L131.135 5.8125L130.999 5.8125L130.999 3.61364Q130.999 3.17898 130.726 2.90625Q130.453 2.63352 130.018 2.63352Q129.729 2.63352 129.504 2.75923Q129.279 2.88494 129.15 3.10653Q129.021 3.32813 129.021 3.61364ZM133.521 5.88068Q133.093 5.88068 132.772 5.65696Q132.452 5.43324 132.275 5.04972Q132.098 4.66619 132.098 4.18466Q132.098 3.70313 132.276 3.3196Q132.454 2.93608 132.761 2.71236Q133.067 2.48864 133.453 2.48864Q133.835 2.48864 134.137 2.70064Q134.44 2.91264 134.615 3.2642Q134.791 3.61577 134.791 4.03977L134.791 4.17614L132.234 4.17614Q132.237 4.6044 132.387 4.96023Q132.537 5.31605 132.824 5.53018Q133.11 5.74432 133.521 5.74432Q133.824 5.74432 134.029 5.63778Q134.235 5.53125 134.36 5.39276Q134.484 5.25426 134.544 5.15625L134.655 5.23295Q134.582 5.35653 134.438 5.50781Q134.293 5.65909 134.067 5.76989Q133.841 5.88068 133.521 5.88068ZM132.239 4.03977L134.655 4.03977Q134.655 3.6456 134.493 3.32493Q134.331 3.00426 134.058 2.81463Q133.786 2.625 133.453 2.625Q133.131 2.625 132.866 2.8093Q132.601 2.99361 132.435 3.31321Q132.268 3.63281 132.239 4.03977ZM137.714 3.23011L137.578 3.2642Q137.378 2.625 136.709 2.625Q136.317 2.625 136.074 2.82422Q135.831 3.02344 135.831 3.34943Q135.831 3.87358 136.496 4.03977L137.007 4.16761Q137.367 4.2571 137.554 4.47017Q137.74 4.68324 137.74 4.9858Q137.74 5.38636 137.435 5.63352Q137.131 5.88068 136.649 5.88068Q136.212 5.88068 135.935 5.66761Q135.658 5.45455 135.575 5.0625L135.712 5.02841Q135.859 5.74432 136.649 5.74432Q137.075 5.74432 137.339 5.53551Q137.604 5.3267 137.604 4.9858Q137.604 4.46165 136.973 4.30398L136.462 4.17614Q136.085 4.08239 135.89 3.86932Q135.695 3.65625 135.695 3.34943Q135.695 2.96378 135.978 2.72621Q136.261 2.48864 136.709 2.48864Q137.474 2.48864 137.714 3.23011ZM140.672 3.23011L140.536 3.2642Q140.335 2.625 139.666 2.625Q139.274 2.625 139.031 2.82422Q138.788 3.02344 138.788 3.34943Q138.788 3.87358 139.453 4.03977L139.964 4.16761Q140.325 4.2571 140.511 4.47017Q140.697 4.68324 140.697 4.9858Q140.697 5.38636 140.393 5.63352Q140.088 5.88068 139.607 5.88068Q139.17 5.88068 138.893 5.66761Q138.616 5.45455 138.533 5.0625L138.669 5.02841Q138.816 5.74432 139.607 5.74432Q140.033 5.74432 140.297 5.53551Q140.561 5.3267 140.561 4.9858Q140.561 4.46165 139.93 4.30398L139.419 4.17614Q139.042 4.08239 138.847 3.86932Q138.652 3.65625 138.652 3.34943Q138.652 2.96378 138.935 2.72621Q139.219 2.48864 139.666 2.48864Q140.431 2.48864 140.672 3.23011ZM144.516 5.88068Q144.13 5.88068 143.823 5.65803Q143.516 5.43537 143.338 5.05078Q143.161 4.66619 143.161 4.18466Q143.161 3.70099 143.338 3.31747Q143.516 2.93395 143.823 2.71129Q144.13 2.48864 144.516 2.48864Q144.901 2.48864 145.207 2.71236Q145.513 2.93608 145.692 3.3196Q145.871 3.70313 145.871 4.18466Q145.871 4.66619 145.693 5.05078Q145.515 5.43537 145.208 5.65803Q144.901 5.88068 144.516 5.88068ZM144.516 5.74432Q144.863 5.74432 145.139 5.53977Q145.415 5.33523 145.575 4.98153Q145.734 4.62784 145.734 4.18466Q145.734 3.74148 145.574 3.38885Q145.413 3.03622 145.138 2.83061Q144.863 2.625 144.516 2.625Q144.17 2.625 143.895 2.83061Q143.619 3.03622 143.458 3.38885Q143.297 3.74148 143.297 4.18466Q143.297 4.62784 143.457 4.98153Q143.616 5.33523 143.892 5.53977Q144.168 5.74432 144.516 5.74432ZM147.422 5.8125L146.45 2.53977L146.595 2.53977L147.507 5.625L147.524 5.625L148.445 2.53977L148.581 2.53977L149.501 5.625L149.518 5.625L150.43 2.53977L150.575 2.53977L149.604 5.8125L149.416 5.8125L148.521 2.79545L148.504 2.79545L147.609 5.8125L147.422 5.8125ZM151.598 3.61364L151.598 5.8125L151.462 5.8125L151.462 2.53977L151.598 2.53977L151.598 3.05966L151.615 3.05966Q151.73 2.80398 151.993 2.65057Q152.256 2.49716 152.595 2.49716Q152.923 2.49716 153.175 2.63991Q153.426 2.78267 153.569 3.03409Q153.712 3.28551 153.712 3.61364L153.712 5.8125L153.575 5.8125L153.575 3.61364Q153.575 3.17898 153.303 2.90625Q153.03 2.63352 152.595 2.63352Q152.305 2.63352 152.081 2.75923Q151.856 2.88494 151.727 3.10653Q151.598 3.32813 151.598 3.61364ZM156.098 5.88068Q155.67 5.88068 155.349 5.65696Q155.028 5.43324 154.852 5.04972Q154.675 4.66619 154.675 4.18466Q154.675 3.70313 154.853 3.3196Q155.031 2.93608 155.337 2.71236Q155.644 2.48864 156.03 2.48864Q156.411 2.48864 156.714 2.70064Q157.016 2.91264 157.192 3.2642Q157.368 3.61577 157.368 4.03977L157.368 4.17614L154.811 4.17614Q154.813 4.6044 154.963 4.96023Q155.114 5.31605 155.4 5.53018Q155.687 5.74432 156.098 5.74432Q156.401 5.74432 156.606 5.63778Q156.812 5.53125 156.936 5.39276Q157.061 5.25426 157.121 5.15625L157.232 5.23295Q157.159 5.35653 157.014 5.50781Q156.869 5.65909 156.643 5.76989Q156.418 5.88068 156.098 5.88068ZM154.815 4.03977L157.232 4.03977Q157.232 3.6456 157.07 3.32493Q156.908 3.00426 156.635 2.81463Q156.362 2.625 156.03 2.625Q155.708 2.625 155.443 2.8093Q155.178 2.99361 155.011 3.31321Q154.845 3.63281 154.815 4.03977ZM158.331 5.8125L158.331 2.53977L158.467 2.53977L158.467 3.05966L158.484 3.05966Q158.599 2.80398 158.863 2.65057Q159.126 2.49716 159.464 2.49716L159.533 2.49716L159.533 2.63352L159.464 2.63352Q159.175 2.63352 158.95 2.75923Q158.725 2.88494 158.596 3.10653Q158.467 3.32813 158.467 3.61364L158.467 5.8125L158.331 5.8125ZM163.001 5.87216Q162.656 5.87216 162.378 5.71768Q162.1 5.56321 161.937 5.3022Q161.774 5.04119 161.774 4.72159Q161.774 4.42756 161.941 4.1804Q162.109 3.93324 162.524 3.61364L162.737 3.45384L162.695 3.40057Q162.494 3.14915 162.358 2.96697Q162.222 2.7848 162.151 2.63033Q162.081 2.47585 162.081 2.30966Q162.081 2.0625 162.209 1.85263Q162.337 1.64276 162.548 1.51598Q162.758 1.3892 163.01 1.3892Q163.257 1.3892 163.452 1.50426Q163.647 1.61932 163.759 1.8196Q163.871 2.01989 163.871 2.27557Q163.871 2.53764 163.726 2.76136Q163.581 2.98509 163.249 3.24716L162.931 3.48366L164.199 5.08594Q164.433 4.73224 164.518 4.22727L164.655 4.24432Q164.612 4.50213 164.515 4.75355Q164.418 5.00497 164.288 5.19886L164.774 5.8125L164.604 5.8125L164.207 5.31179Q164.182 5.34801 164.152 5.37784Q163.935 5.60795 163.628 5.74006Q163.321 5.87216 163.001 5.87216ZM164.118 5.19673L162.825 3.56463L162.609 3.72443Q162.219 4.02486 162.065 4.24219Q161.91 4.45952 161.91 4.72159Q161.91 5.00284 162.055 5.23082Q162.2 5.45881 162.447 5.59517Q162.695 5.73153 163.001 5.7358Q163.361 5.72727 163.642 5.58558Q163.922 5.44389 164.118 5.19673ZM162.844 3.375L163.163 3.13636Q163.472 2.8956 163.603 2.7017Q163.734 2.50781 163.734 2.27557Q163.734 1.94957 163.529 1.73757Q163.323 1.52557 163.01 1.52557Q162.797 1.52557 162.617 1.63423Q162.437 1.7429 162.327 1.92188Q162.217 2.10085 162.217 2.30966Q162.217 2.45028 162.279 2.58558Q162.341 2.72088 162.469 2.8924Q162.597 3.06392 162.797 3.31534L162.844 3.375ZM167.263 5.8125L167.263 1.44886L169.589 1.44886L169.589 1.58523L167.399 1.58523L167.399 3.5625L169.462 3.5625L169.462 3.69886L167.399 3.69886L167.399 5.67614L169.649 5.67614L169.649 5.8125L167.263 5.8125ZM172.913 2.53977L171.746 5.8125L171.558 5.8125L170.391 2.53977L170.535 2.53977L171.643 5.64205L171.66 5.64205L172.768 2.53977L172.913 2.53977ZM174.908 5.88068Q174.479 5.88068 174.159 5.65696Q173.838 5.43324 173.661 5.04972Q173.484 4.66619 173.484 4.18466Q173.484 3.70313 173.662 3.3196Q173.84 2.93608 174.147 2.71236Q174.454 2.48864 174.839 2.48864Q175.221 2.48864 175.523 2.70064Q175.826 2.91264 176.002 3.2642Q176.178 3.61577 176.178 4.03977L176.178 4.17614L173.621 4.17614Q173.623 4.6044 173.773 4.96023Q173.923 5.31605 174.21 5.53018Q174.496 5.74432 174.908 5.74432Q175.21 5.74432 175.416 5.63778Q175.621 5.53125 175.746 5.39276Q175.871 5.25426 175.93 5.15625L176.041 5.23295Q175.969 5.35653 175.824 5.50781Q175.679 5.65909 175.453 5.76989Q175.227 5.88068 174.908 5.88068ZM173.625 4.03977L176.041 4.03977Q176.041 3.6456 175.879 3.32493Q175.717 3.00426 175.445 2.81463Q175.172 2.625 174.839 2.625Q174.518 2.625 174.252 2.8093Q173.987 2.99361 173.821 3.31321Q173.655 3.63281 173.625 4.03977ZM177.141 5.8125L177.141 2.53977L177.277 2.53977L177.277 3.05966L177.294 3.05966Q177.409 2.80398 177.672 2.65057Q177.935 2.49716 178.274 2.49716L178.342 2.49716L178.342 2.63352L178.274 2.63352Q177.984 2.63352 177.76 2.75923Q177.535 2.88494 177.406 3.10653Q177.277 3.32813 177.277 3.61364L177.277 5.8125L177.141 5.8125ZM179.344 7.03977Q179.173 7.03977 178.977 6.95455L179.028 6.83523Q179.67 7.11009 179.94 6.35795L180.115 5.87216L178.922 2.53977L179.067 2.53977L180.175 5.64205L180.192 5.64205L181.3 2.53977L181.445 2.53977L180.068 6.40909Q179.842 7.03977 179.344 7.03977ZM183.371 5.88068Q182.985 5.88068 182.678 5.65803Q182.371 5.43537 182.193 5.05078Q182.016 4.66619 182.016 4.18466Q182.016 3.70099 182.193 3.31747Q182.371 2.93395 182.678 2.71129Q182.985 2.48864 183.371 2.48864Q183.756 2.48864 184.062 2.71236Q184.368 2.93608 184.547 3.3196Q184.726 3.70313 184.726 4.18466Q184.726 4.66619 184.548 5.05078Q184.37 5.43537 184.063 5.65803Q183.756 5.88068 183.371 5.88068ZM183.371 5.74432Q183.718 5.74432 183.994 5.53977Q184.27 5.33523 184.43 4.98153Q184.589 4.62784 184.589 4.18466Q184.589 3.74148 184.429 3.38885Q184.268 3.03622 183.993 2.83061Q183.718 2.625 183.371 2.625Q183.026 2.625 182.75 2.83061Q182.474 3.03622 182.313 3.38885Q182.152 3.74148 182.152 4.18466Q182.152 4.62784 182.312 4.98153Q182.472 5.33523 182.747 5.53977Q183.023 5.74432 183.371 5.74432ZM185.825 3.61364L185.825 5.8125L185.689 5.8125L185.689 2.53977L185.825 2.53977L185.825 3.05966L185.842 3.05966Q185.957 2.80398 186.22 2.65057Q186.484 2.49716 186.822 2.49716Q187.151 2.49716 187.402 2.63991Q187.653 2.78267 187.796 3.03409Q187.939 3.28551 187.939 3.61364L187.939 5.8125L187.803 5.8125L187.803 3.61364Q187.803 3.17898 187.53 2.90625Q187.257 2.63352 186.822 2.63352Q186.533 2.63352 186.308 2.75923Q186.083 2.88494 185.954 3.10653Q185.825 3.32813 185.825 3.61364ZM190.325 5.88068Q189.897 5.88068 189.576 5.65696Q189.256 5.43324 189.079 5.04972Q188.902 4.66619 188.902 4.18466Q188.902 3.70313 189.08 3.3196Q189.258 2.93608 189.565 2.71236Q189.871 2.48864 190.257 2.48864Q190.638 2.48864 190.941 2.70064Q191.244 2.91264 191.419 3.2642Q191.595 3.61577 191.595 4.03977L191.595 4.17614L189.038 4.17614Q189.04 4.6044 189.191 4.96023Q189.341 5.31605 189.627 5.53018Q189.914 5.74432 190.325 5.74432Q190.628 5.74432 190.833 5.63778Q191.039 5.53125 191.164 5.39276Q191.288 5.25426 191.348 5.15625L191.459 5.23295Q191.386 5.35653 191.241 5.50781Q191.097 5.65909 190.871 5.76989Q190.645 5.88068 190.325 5.88068ZM189.043 4.03977L191.459 4.03977Q191.459 3.6456 191.297 3.32493Q191.135 3.00426 190.862 2.81463Q190.589 2.625 190.257 2.625Q189.935 2.625 189.67 2.8093Q189.405 2.99361 189.239 3.31321Q189.072 3.63281 189.043 4.03977ZM195.473 5.88068Q195.045 5.88068 194.724 5.65696Q194.403 5.43324 194.227 5.04972Q194.05 4.66619 194.05 4.18466Q194.05 3.70313 194.228 3.3196Q194.405 2.93608 194.712 2.71236Q195.019 2.48864 195.405 2.48864Q195.786 2.48864 196.089 2.70064Q196.391 2.91264 196.567 3.2642Q196.743 3.61577 196.743 4.03977L196.743 4.17614L194.186 4.17614Q194.188 4.6044 194.338 4.96023Q194.489 5.31605 194.775 5.53018Q195.062 5.74432 195.473 5.74432Q195.776 5.74432 195.981 5.63778Q196.187 5.53125 196.311 5.39276Q196.436 5.25426 196.496 5.15625L196.606 5.23295Q196.534 5.35653 196.389 5.50781Q196.244 5.65909 196.018 5.76989Q195.793 5.88068 195.473 5.88068ZM194.19 4.03977L196.606 4.03977Q196.606 3.6456 196.445 3.32493Q196.283 3.00426 196.01 2.81463Q195.737 2.625 195.405 2.625Q195.083 2.625 194.818 2.8093Q194.553 2.99361 194.386 3.31321Q194.22 3.63281 194.19 4.03977ZM197.842 1.44886L197.842 5.8125L197.706 5.8125L197.706 1.44886L197.842 1.44886ZM200.962 3.23011L200.825 3.2642Q200.625 2.625 199.956 2.625Q199.564 2.625 199.321 2.82422Q199.078 3.02344 199.078 3.34943Q199.078 3.87358 199.743 4.03977L200.254 4.16761Q200.614 4.2571 200.801 4.47017Q200.987 4.68324 200.987 4.9858Q200.987 5.38636 200.682 5.63352Q200.378 5.88068 199.896 5.88068Q199.459 5.88068 199.182 5.66761Q198.905 5.45455 198.822 5.0625L198.959 5.02841Q199.106 5.74432 199.896 5.74432Q200.322 5.74432 200.587 5.53551Q200.851 5.3267 200.851 4.9858Q200.851 4.46165 200.22 4.30398L199.709 4.17614Q199.332 4.08239 199.137 3.86932Q198.942 3.65625 198.942 3.34943Q198.942 2.96378 199.225 2.72621Q199.508 2.48864 199.956 2.48864Q200.721 2.48864 200.962 3.23011ZM203.186 5.88068Q202.758 5.88068 202.437 5.65696Q202.116 5.43324 201.94 5.04972Q201.763 4.66619 201.763 4.18466Q201.763 3.70313 201.941 3.3196Q202.119 2.93608 202.425 2.71236Q202.732 2.48864 203.118 2.48864Q203.499 2.48864 203.802 2.70064Q204.104 2.91264 204.28 3.2642Q204.456 3.61577 204.456 4.03977L204.456 4.17614L201.899 4.17614Q201.901 4.6044 202.051 4.96023Q202.202 5.31605 202.488 5.53018Q202.775 5.74432 203.186 5.74432Q203.489 5.74432 203.694 5.63778Q203.9 5.53125 204.024 5.39276Q204.149 5.25426 204.209 5.15625L204.32 5.23295Q204.247 5.35653 204.102 5.50781Q203.957 5.65909 203.731 5.76989Q203.506 5.88068 203.186 5.88068ZM201.903 4.03977L204.32 4.03977Q204.32 3.6456 204.158 3.32493Q203.996 3.00426 203.723 2.81463Q203.45 2.625 203.118 2.625Q202.796 2.625 202.531 2.8093Q202.266 2.99361 202.099 3.31321Q201.933 3.63281 201.903 4.03977ZM205.598 5.83807Q205.534 5.83807 205.489 5.79332Q205.445 5.74858 205.445 5.68466Q205.445 5.62074 205.489 5.57599Q205.534 5.53125 205.598 5.53125Q205.662 5.53125 205.707 5.57599Q205.751 5.62074 205.751 5.68466Q205.751 5.74858 205.707 5.79332Q205.662 5.83807 205.598 5.83807Z" fill="#FFFFFF" transform="translate(67 26)" />
    <path d="M3.77557 2.8125Q3.73722 2.58878 3.61896 2.36186Q3.50071 2.13494 3.30575 1.94531Q3.1108 1.75568 2.84446 1.64063Q2.57812 1.52557 2.24148 1.52557Q1.74077 1.52557 1.3647 1.78871Q0.988636 2.05185 0.77983 2.52592Q0.571023 3 0.571023 3.63068Q0.571023 4.25284 0.777699 4.72798Q0.984375 5.20313 1.36364 5.46946Q1.7429 5.7358 2.25852 5.7358Q2.7081 5.7358 3.05753 5.52592Q3.40696 5.31605 3.60724 4.92188Q3.80753 4.5277 3.80966 3.97159L2.30114 3.97159L2.30114 3.83523L3.94602 3.83523L3.94602 3.97159Q3.94602 4.56818 3.72869 4.99325Q3.51136 5.41832 3.12997 5.64524Q2.74858 5.87216 2.25852 5.87216Q1.70455 5.87216 1.29439 5.58984Q0.884233 5.30753 0.659446 4.80256Q0.434659 4.29759 0.434659 3.63068Q0.434659 2.95952 0.660511 2.45455Q0.886364 1.94957 1.29332 1.66939Q1.70028 1.3892 2.24148 1.3892Q2.625 1.3892 2.91903 1.52131Q3.21307 1.65341 3.42081 1.86754Q3.62855 2.08168 3.75107 2.3299Q3.87358 2.57813 3.91193 2.8125L3.77557 2.8125ZM6.23864 5.88068Q5.81037 5.88068 5.4897 5.65696Q5.16903 5.43324 4.99219 5.04972Q4.81534 4.66619 4.81534 4.18466Q4.81534 3.70313 4.99325 3.3196Q5.17116 2.93608 5.47798 2.71236Q5.7848 2.48864 6.17045 2.48864Q6.55185 2.48864 6.8544 2.70064Q7.15696 2.91264 7.33274 3.2642Q7.50852 3.61577 7.50852 4.03977L7.50852 4.17614L4.9517 4.17614Q4.95384 4.6044 5.10405 4.96023Q5.25426 5.31605 5.54084 5.53018Q5.82741 5.74432 6.23864 5.74432Q6.54119 5.74432 6.7468 5.63778Q6.95241 5.53125 7.07706 5.39276Q7.2017 5.25426 7.26136 5.15625L7.37216 5.23295Q7.29972 5.35653 7.15483 5.50781Q7.00994 5.65909 6.78409 5.76989Q6.55824 5.88068 6.23864 5.88068ZM4.95597 4.03977L7.37216 4.03977Q7.37216 3.6456 7.21023 3.32493Q7.0483 3.00426 6.77557 2.81463Q6.50284 2.625 6.17045 2.625Q5.84872 2.625 5.58345 2.8093Q5.31818 2.99361 5.15199 3.31321Q4.9858 3.63281 4.95597 4.03977ZM9.49432 2.53977L9.49432 2.67614L8.8125 2.67614L8.8125 5.12216Q8.8125 5.40767 8.9968 5.57173Q9.18111 5.7358 9.42614 5.7358Q9.53267 5.7358 9.64773 5.69318L9.69034 5.82102Q9.62642 5.84446 9.56463 5.85831Q9.50284 5.87216 9.42614 5.87216Q9.12358 5.87216 8.89986 5.66974Q8.67614 5.46733 8.67614 5.12216L8.67614 2.67614L8.19886 2.67614L8.19886 2.53977L8.67614 2.53977L8.67614 1.75568L8.8125 1.75568L8.8125 2.53977L9.49432 2.53977ZM13.0653 5.88068Q12.7969 5.88068 12.57 5.76989Q12.343 5.65909 12.2056 5.44602Q12.0682 5.23295 12.0682 4.92614Q12.0682 4.70455 12.1673 4.52024Q12.2663 4.33594 12.5337 4.2049Q12.8011 4.07386 13.304 4.0142Q13.5298 3.98864 13.7301 3.95455Q13.9304 3.92045 14.0561 3.85227Q14.1818 3.78409 14.1818 3.65625L14.1818 3.46023Q14.1818 3.0831 13.9283 2.85405Q13.6747 2.625 13.2528 2.625Q12.9077 2.625 12.6499 2.77734Q12.392 2.92969 12.2898 3.20455L12.1619 3.15341Q12.277 2.84659 12.5732 2.66761Q12.8693 2.48864 13.2528 2.48864Q13.7514 2.48864 14.0348 2.76669Q14.3182 3.04474 14.3182 3.46023L14.3182 5.8125L14.1818 5.8125L14.1818 5.14773L14.1648 5.14773Q14.0114 5.48011 13.7237 5.6804Q13.4361 5.88068 13.0653 5.88068ZM13.0653 5.74432Q13.3764 5.74432 13.63 5.57706Q13.8835 5.4098 14.0327 5.11044Q14.1818 4.81108 14.1818 4.41477L14.1818 3.92045Q14.0604 4.00994 13.8484 4.06001Q13.6364 4.11009 13.3551 4.14205Q12.9162 4.19318 12.6648 4.29759Q12.4134 4.40199 12.3089 4.55966Q12.2045 4.71733 12.2045 4.92614Q12.2045 5.29688 12.4528 5.5206Q12.701 5.74432 13.0653 5.74432ZM15.4943 5.8125L15.4943 2.53977L15.6307 2.53977L15.6307 3.02557L15.6477 3.02557Q15.7372 2.78693 15.9684 2.64205Q16.1996 2.49716 16.5256 2.49716Q16.8963 2.49716 17.1168 2.6804Q17.3374 2.86364 17.4205 3.17045L17.4375 3.17045Q17.5185 2.86364 17.7656 2.6804Q18.0128 2.49716 18.3835 2.49716Q18.8757 2.49716 19.1112 2.8093Q19.3466 3.12145 19.3466 3.61364L19.3466 5.8125L19.2102 5.8125L19.2102 3.61364Q19.2102 3.17898 19.0142 2.90625Q18.8182 2.63352 18.3835 2.63352Q17.9489 2.63352 17.7188 2.90945Q17.4886 3.18537 17.4886 3.61364L17.4886 5.8125L17.3523 5.8125L17.3523 3.61364Q17.3523 3.17898 17.1563 2.90625Q16.9602 2.63352 16.5256 2.63352Q16.0909 2.63352 15.8608 2.90945Q15.6307 3.18537 15.6307 3.61364L15.6307 5.8125L15.4943 5.8125ZM21.3239 5.88068Q21.0554 5.88068 20.8285 5.76989Q20.6016 5.65909 20.4641 5.44602Q20.3267 5.23295 20.3267 4.92614Q20.3267 4.70455 20.4258 4.52024Q20.5249 4.33594 20.7923 4.2049Q21.0597 4.07386 21.5625 4.0142Q21.7884 3.98864 21.9886 3.95455Q22.1889 3.92045 22.3146 3.85227Q22.4403 3.78409 22.4403 3.65625L22.4403 3.46023Q22.4403 3.0831 22.1868 2.85405Q21.9332 2.625 21.5114 2.625Q21.1662 2.625 20.9084 2.77734Q20.6506 2.92969 20.5483 3.20455L20.4205 3.15341Q20.5355 2.84659 20.8317 2.66761Q21.1278 2.48864 21.5114 2.48864Q22.0099 2.48864 22.2933 2.76669Q22.5767 3.04474 22.5767 3.46023L22.5767 5.8125L22.4403 5.8125L22.4403 5.14773L22.4233 5.14773Q22.2699 5.48011 21.9822 5.6804Q21.6946 5.88068 21.3239 5.88068ZM21.3239 5.74432Q21.6349 5.74432 21.8885 5.57706Q22.142 5.4098 22.2912 5.11044Q22.4403 4.81108 22.4403 4.41477L22.4403 3.92045Q22.3189 4.00994 22.1069 4.06001Q21.8949 4.11009 21.6136 4.14205Q21.1747 4.19318 20.9233 4.29759Q20.6719 4.40199 20.5675 4.55966Q20.4631 4.71733 20.4631 4.92614Q20.4631 5.29688 20.7113 5.5206Q20.9595 5.74432 21.3239 5.74432ZM23.7699 5.8125L23.7699 2.53977L23.9063 2.53977L23.9063 5.8125L23.7699 5.8125ZM23.8381 1.94318Q23.7827 1.94318 23.7422 1.9027Q23.7017 1.86222 23.7017 1.80682Q23.7017 1.75142 23.7422 1.71094Q23.7827 1.67045 23.8381 1.67045Q23.8935 1.67045 23.9339 1.71094Q23.9744 1.75142 23.9744 1.80682Q23.9744 1.86222 23.9339 1.9027Q23.8935 1.94318 23.8381 1.94318ZM24.9631 5.8125L24.9631 5.67614L26.9233 2.69318L26.9233 2.67614L25.0909 2.67614L25.0909 2.53977L27.0938 2.53977L27.0938 2.67614L25.1335 5.65909L25.1335 5.67614L27.179 5.67614L27.179 5.8125L24.9631 5.8125ZM28.1506 5.8125L28.1506 2.53977L28.2869 2.53977L28.2869 5.8125L28.1506 5.8125ZM28.2188 1.94318Q28.1634 1.94318 28.1229 1.9027Q28.0824 1.86222 28.0824 1.80682Q28.0824 1.75142 28.1229 1.71094Q28.1634 1.67045 28.2188 1.67045Q28.2741 1.67045 28.3146 1.71094Q28.3551 1.75142 28.3551 1.80682Q28.3551 1.86222 28.3146 1.9027Q28.2741 1.94318 28.2188 1.94318ZM29.5994 3.61364L29.5994 5.8125L29.4631 5.8125L29.4631 2.53977L29.5994 2.53977L29.5994 3.05966L29.6165 3.05966Q29.7315 2.80398 29.9947 2.65057Q30.2578 2.49716 30.5966 2.49716Q30.9247 2.49716 31.1761 2.63991Q31.4276 2.78267 31.5703 3.03409Q31.7131 3.28551 31.7131 3.61364L31.7131 5.8125L31.5767 5.8125L31.5767 3.61364Q31.5767 3.17898 31.304 2.90625Q31.0313 2.63352 30.5966 2.63352Q30.3068 2.63352 30.082 2.75923Q29.8572 2.88494 29.7283 3.10653Q29.5994 3.32813 29.5994 3.61364ZM33.9801 7.10795Q33.5689 7.10795 33.2578 6.94389Q32.9467 6.77983 32.821 6.4517L32.9489 6.40057Q33.0597 6.69034 33.3356 6.83097Q33.6115 6.97159 33.9801 6.97159Q34.4915 6.97159 34.777 6.70206Q35.0625 6.43253 35.0625 5.88068L35.0625 4.99432L35.0455 4.99432Q34.9176 5.40341 34.6097 5.60795Q34.3018 5.8125 33.9375 5.8125Q33.554 5.8125 33.2706 5.60582Q32.9872 5.39915 32.8317 5.03267Q32.6761 4.66619 32.6761 4.18466Q32.6761 3.69886 32.8295 3.31534Q32.983 2.93182 33.2663 2.71023Q33.5497 2.48864 33.9375 2.48864Q34.3338 2.48864 34.6225 2.72727Q34.9112 2.96591 35.0455 3.375L35.0625 3.375L35.0625 2.53977L35.1989 2.53977L35.1989 5.88068Q35.1989 6.4858 34.8729 6.79688Q34.5469 7.10795 33.9801 7.10795ZM33.9375 5.67614Q34.4489 5.67614 34.7557 5.2745Q35.0625 4.87287 35.0625 4.18466Q35.0625 3.74148 34.9261 3.38885Q34.7898 3.03622 34.5373 2.83061Q34.2848 2.625 33.9375 2.625Q33.5902 2.625 33.3377 2.83061Q33.0852 3.03622 32.9489 3.38885Q32.8125 3.74148 32.8125 4.18466Q32.8125 4.62784 32.9499 4.96342Q33.0874 5.29901 33.3398 5.48757Q33.5923 5.67614 33.9375 5.67614ZM39.0852 2.53977L39.0852 2.67614L38.4034 2.67614L38.4034 5.12216Q38.4034 5.40767 38.5877 5.57173Q38.772 5.7358 39.017 5.7358Q39.1236 5.7358 39.2386 5.69318L39.2813 5.82102Q39.2173 5.84446 39.1555 5.85831Q39.0938 5.87216 39.017 5.87216Q38.7145 5.87216 38.4908 5.66974Q38.267 5.46733 38.267 5.12216L38.267 2.67614L37.7898 2.67614L37.7898 2.53977L38.267 2.53977L38.267 1.75568L38.4034 1.75568L38.4034 2.53977L39.0852 2.53977ZM41.2756 5.88068Q40.8899 5.88068 40.5831 5.65803Q40.2763 5.43537 40.0984 5.05078Q39.9205 4.66619 39.9205 4.18466Q39.9205 3.70099 40.0984 3.31747Q40.2763 2.93395 40.5831 2.71129Q40.8899 2.48864 41.2756 2.48864Q41.6612 2.48864 41.967 2.71236Q42.2727 2.93608 42.4517 3.3196Q42.6307 3.70313 42.6307 4.18466Q42.6307 4.66619 42.4528 5.05078Q42.2749 5.43537 41.968 5.65803Q41.6612 5.88068 41.2756 5.88068ZM41.2756 5.74432Q41.6229 5.74432 41.8988 5.53977Q42.1747 5.33523 42.3345 4.98153Q42.4943 4.62784 42.4943 4.18466Q42.4943 3.74148 42.3335 3.38885Q42.1726 3.03622 41.8977 2.83061Q41.6229 2.625 41.2756 2.625Q40.9304 2.625 40.6545 2.83061Q40.3786 3.03622 40.2177 3.38885Q40.0568 3.74148 40.0568 4.18466Q40.0568 4.62784 40.2166 4.98153Q40.3764 5.33523 40.6523 5.53977Q40.9283 5.74432 41.2756 5.74432ZM44.7528 5.88068Q44.3672 5.88068 44.0604 5.65803Q43.7536 5.43537 43.5756 5.05078Q43.3977 4.66619 43.3977 4.18466Q43.3977 3.70099 43.5756 3.31747Q43.7536 2.93395 44.0604 2.71129Q44.3672 2.48864 44.7528 2.48864Q45.1385 2.48864 45.4442 2.71236Q45.75 2.93608 45.929 3.3196Q46.108 3.70313 46.108 4.18466Q46.108 4.66619 45.93 5.05078Q45.7521 5.43537 45.4453 5.65803Q45.1385 5.88068 44.7528 5.88068ZM44.7528 5.74432Q45.1001 5.74432 45.3761 5.53977Q45.652 5.33523 45.8118 4.98153Q45.9716 4.62784 45.9716 4.18466Q45.9716 3.74148 45.8107 3.38885Q45.6499 3.03622 45.375 2.83061Q45.1001 2.625 44.7528 2.625Q44.4077 2.625 44.1317 2.83061Q43.8558 3.03622 43.695 3.38885Q43.5341 3.74148 43.5341 4.18466Q43.5341 4.62784 43.6939 4.98153Q43.8537 5.33523 44.1296 5.53977Q44.4055 5.74432 44.7528 5.74432ZM47.2074 1.44886L47.2074 5.8125L47.071 5.8125L47.071 1.44886L47.2074 1.44886ZM48.3665 5.8125L48.3665 1.44886L48.5028 1.44886L48.5028 4.24432L48.5199 4.24432L50.2585 2.53977L50.4545 2.53977L49.0206 3.95028L50.5057 5.8125L50.3267 5.8125L48.9247 4.04403L48.5028 4.45739L48.5028 5.8125L48.3665 5.8125ZM51.3068 5.8125L51.3068 2.53977L51.4432 2.53977L51.4432 5.8125L51.3068 5.8125ZM51.375 1.94318Q51.3196 1.94318 51.2791 1.9027Q51.2386 1.86222 51.2386 1.80682Q51.2386 1.75142 51.2791 1.71094Q51.3196 1.67045 51.375 1.67045Q51.4304 1.67045 51.4709 1.71094Q51.5114 1.75142 51.5114 1.80682Q51.5114 1.86222 51.4709 1.9027Q51.4304 1.94318 51.375 1.94318ZM53.642 2.53977L53.642 2.67614L52.9602 2.67614L52.9602 5.12216Q52.9602 5.40767 53.1445 5.57173Q53.3288 5.7358 53.5739 5.7358Q53.6804 5.7358 53.7955 5.69318L53.8381 5.82102Q53.7741 5.84446 53.7124 5.85831Q53.6506 5.87216 53.5739 5.87216Q53.2713 5.87216 53.0476 5.66974Q52.8239 5.46733 52.8239 5.12216L52.8239 2.67614L52.3466 2.67614L52.3466 2.53977L52.8239 2.53977L52.8239 1.75568L52.9602 1.75568L52.9602 2.53977L53.642 2.53977ZM56.608 3.23011L56.4716 3.2642Q56.2713 2.625 55.6023 2.625Q55.2102 2.625 54.9673 2.82422Q54.7244 3.02344 54.7244 3.34943Q54.7244 3.87358 55.3892 4.03977L55.9006 4.16761Q56.2607 4.2571 56.4471 4.47017Q56.6335 4.68324 56.6335 4.9858Q56.6335 5.38636 56.3288 5.63352Q56.0241 5.88068 55.5426 5.88068Q55.1058 5.88068 54.8288 5.66761Q54.5518 5.45455 54.4688 5.0625L54.6051 5.02841Q54.7521 5.74432 55.5426 5.74432Q55.9688 5.74432 56.233 5.53551Q56.4972 5.3267 56.4972 4.9858Q56.4972 4.46165 55.8665 4.30398L55.3551 4.17614Q54.978 4.08239 54.783 3.86932Q54.5881 3.65625 54.5881 3.34943Q54.5881 2.96378 54.8714 2.72621Q55.1548 2.48864 55.6023 2.48864Q56.3672 2.48864 56.608 3.23011ZM57.9972 5.21591L57.9545 5.4375Q57.9162 5.64418 57.8651 5.9201Q57.8139 6.19602 57.7607 6.45597Q57.7074 6.71591 57.6562 6.87784L57.5455 6.87784Q57.5902 6.63494 57.6616 6.25994Q57.733 5.88494 57.8097 5.45455L57.8523 5.21591L57.9972 5.21591ZM60.2535 7.10795Q59.8423 7.10795 59.5312 6.94389Q59.2202 6.77983 59.0945 6.4517L59.2223 6.40057Q59.3331 6.69034 59.609 6.83097Q59.8849 6.97159 60.2535 6.97159Q60.7649 6.97159 61.0504 6.70206Q61.3359 6.43253 61.3359 5.88068L61.3359 4.99432L61.3189 4.99432Q61.191 5.40341 60.8832 5.60795Q60.5753 5.8125 60.2109 5.8125Q59.8274 5.8125 59.544 5.60582Q59.2607 5.39915 59.1051 5.03267Q58.9496 4.66619 58.9496 4.18466Q58.9496 3.69886 59.103 3.31534Q59.2564 2.93182 59.5398 2.71023Q59.8232 2.48864 60.2109 2.48864Q60.6072 2.48864 60.896 2.72727Q61.1847 2.96591 61.3189 3.375L61.3359 3.375L61.3359 2.53977L61.4723 2.53977L61.4723 5.88068Q61.4723 6.4858 61.1463 6.79688Q60.8203 7.10795 60.2535 7.10795ZM60.2109 5.67614Q60.7223 5.67614 61.0291 5.2745Q61.3359 4.87287 61.3359 4.18466Q61.3359 3.74148 61.1996 3.38885Q61.0632 3.03622 60.8107 2.83061Q60.5582 2.625 60.2109 2.625Q59.8636 2.625 59.6111 2.83061Q59.3587 3.03622 59.2223 3.38885Q59.0859 3.74148 59.0859 4.18466Q59.0859 4.62784 59.2234 4.96342Q59.3608 5.29901 59.6133 5.48757Q59.8658 5.67614 60.2109 5.67614ZM63.4666 5.88068Q63.1982 5.88068 62.9712 5.76989Q62.7443 5.65909 62.6069 5.44602Q62.4695 5.23295 62.4695 4.92614Q62.4695 4.70455 62.5685 4.52024Q62.6676 4.33594 62.935 4.2049Q63.2024 4.07386 63.7053 4.0142Q63.9311 3.98864 64.1314 3.95455Q64.3317 3.92045 64.4574 3.85227Q64.5831 3.78409 64.5831 3.65625L64.5831 3.46023Q64.5831 3.0831 64.3295 2.85405Q64.076 2.625 63.6541 2.625Q63.3089 2.625 63.0511 2.77734Q62.7933 2.92969 62.691 3.20455L62.5632 3.15341Q62.6783 2.84659 62.9744 2.66761Q63.2706 2.48864 63.6541 2.48864Q64.1527 2.48864 64.4361 2.76669Q64.7195 3.04474 64.7195 3.46023L64.7195 5.8125L64.5831 5.8125L64.5831 5.14773L64.566 5.14773Q64.4126 5.48011 64.125 5.6804Q63.8374 5.88068 63.4666 5.88068ZM63.4666 5.74432Q63.7777 5.74432 64.0313 5.57706Q64.2848 5.4098 64.4339 5.11044Q64.5831 4.81108 64.5831 4.41477L64.5831 3.92045Q64.4616 4.00994 64.2496 4.06001Q64.0376 4.11009 63.7564 4.14205Q63.3175 4.19318 63.066 4.29759Q62.8146 4.40199 62.7102 4.55966Q62.6058 4.71733 62.6058 4.92614Q62.6058 5.29688 62.854 5.5206Q63.1023 5.74432 63.4666 5.74432ZM65.8956 5.8125L65.8956 2.53977L66.032 2.53977L66.032 3.02557L66.049 3.02557Q66.1385 2.78693 66.3697 2.64205Q66.6008 2.49716 66.9268 2.49716Q67.2976 2.49716 67.5181 2.6804Q67.7386 2.86364 67.8217 3.17045L67.8388 3.17045Q67.9197 2.86364 68.1669 2.6804Q68.4141 2.49716 68.7848 2.49716Q69.277 2.49716 69.5124 2.8093Q69.7479 3.12145 69.7479 3.61364L69.7479 5.8125L69.6115 5.8125L69.6115 3.61364Q69.6115 3.17898 69.4155 2.90625Q69.2195 2.63352 68.7848 2.63352Q68.3501 2.63352 68.12 2.90945Q67.8899 3.18537 67.8899 3.61364L67.8899 5.8125L67.7535 5.8125L67.7535 3.61364Q67.7535 3.17898 67.5575 2.90625Q67.3615 2.63352 66.9268 2.63352Q66.4922 2.63352 66.2621 2.90945Q66.032 3.18537 66.032 3.61364L66.032 5.8125L65.8956 5.8125ZM72.1342 5.88068Q71.706 5.88068 71.3853 5.65696Q71.0646 5.43324 70.8878 5.04972Q70.7109 4.66619 70.7109 4.18466Q70.7109 3.70313 70.8888 3.3196Q71.0668 2.93608 71.3736 2.71236Q71.6804 2.48864 72.066 2.48864Q72.4474 2.48864 72.75 2.70064Q73.0526 2.91264 73.2283 3.2642Q73.4041 3.61577 73.4041 4.03977L73.4041 4.17614L70.8473 4.17614Q70.8494 4.6044 70.9996 4.96023Q71.1498 5.31605 71.4364 5.53018Q71.723 5.74432 72.1342 5.74432Q72.4368 5.74432 72.6424 5.63778Q72.848 5.53125 72.9726 5.39276Q73.0973 5.25426 73.157 5.15625L73.2677 5.23295Q73.1953 5.35653 73.0504 5.50781Q72.9055 5.65909 72.6797 5.76989Q72.4538 5.88068 72.1342 5.88068ZM70.8516 4.03977L73.2677 4.03977Q73.2677 3.6456 73.1058 3.32493Q72.9439 3.00426 72.6712 2.81463Q72.3984 2.625 72.066 2.625Q71.7443 2.625 71.479 2.8093Q71.2138 2.99361 71.0476 3.31321Q70.8814 3.63281 70.8516 4.03977ZM76.3274 3.23011L76.191 3.2642Q75.9908 2.625 75.3217 2.625Q74.9297 2.625 74.6868 2.82422Q74.4439 3.02344 74.4439 3.34943Q74.4439 3.87358 75.1087 4.03977L75.62 4.16761Q75.9801 4.2571 76.1665 4.47017Q76.353 4.68324 76.353 4.9858Q76.353 5.38636 76.0483 5.63352Q75.7436 5.88068 75.2621 5.88068Q74.8253 5.88068 74.5483 5.66761Q74.2713 5.45455 74.1882 5.0625L74.3246 5.02841Q74.4716 5.74432 75.2621 5.74432Q75.6882 5.74432 75.9524 5.53551Q76.2166 5.3267 76.2166 4.9858Q76.2166 4.46165 75.5859 4.30398L75.0746 4.17614Q74.6974 4.08239 74.5025 3.86932Q74.3075 3.65625 74.3075 3.34943Q74.3075 2.96378 74.5909 2.72621Q74.8743 2.48864 75.3217 2.48864Q76.0866 2.48864 76.3274 3.23011ZM79.8303 5.88068Q79.5618 5.88068 79.3349 5.76989Q79.1079 5.65909 78.9705 5.44602Q78.8331 5.23295 78.8331 4.92614Q78.8331 4.70455 78.9322 4.52024Q79.0313 4.33594 79.2986 4.2049Q79.566 4.07386 80.0689 4.0142Q80.2947 3.98864 80.495 3.95455Q80.6953 3.92045 80.821 3.85227Q80.9467 3.78409 80.9467 3.65625L80.9467 3.46023Q80.9467 3.0831 80.6932 2.85405Q80.4396 2.625 80.0178 2.625Q79.6726 2.625 79.4148 2.77734Q79.157 2.92969 79.0547 3.20455L78.9268 3.15341Q79.0419 2.84659 79.3381 2.66761Q79.6342 2.48864 80.0178 2.48864Q80.5163 2.48864 80.7997 2.76669Q81.0831 3.04474 81.0831 3.46023L81.0831 5.8125L80.9467 5.8125L80.9467 5.14773L80.9297 5.14773Q80.7763 5.48011 80.4886 5.6804Q80.201 5.88068 79.8303 5.88068ZM79.8303 5.74432Q80.1413 5.74432 80.3949 5.57706Q80.6484 5.4098 80.7976 5.11044Q80.9467 4.81108 80.9467 4.41477L80.9467 3.92045Q80.8253 4.00994 80.6133 4.06001Q80.4013 4.11009 80.12 4.14205Q79.6811 4.19318 79.4297 4.29759Q79.1783 4.40199 79.0739 4.55966Q78.9695 4.71733 78.9695 4.92614Q78.9695 5.29688 79.2177 5.5206Q79.4659 5.74432 79.8303 5.74432ZM82.3956 3.61364L82.3956 5.8125L82.2592 5.8125L82.2592 2.53977L82.3956 2.53977L82.3956 3.05966L82.4126 3.05966Q82.5277 2.80398 82.7908 2.65057Q83.054 2.49716 83.3928 2.49716Q83.7209 2.49716 83.9723 2.63991Q84.2237 2.78267 84.3665 3.03409Q84.5092 3.28551 84.5092 3.61364L84.5092 5.8125L84.3729 5.8125L84.3729 3.61364Q84.3729 3.17898 84.1001 2.90625Q83.8274 2.63352 83.3928 2.63352Q83.103 2.63352 82.8782 2.75923Q82.6534 2.88494 82.5245 3.10653Q82.3956 3.32813 82.3956 3.61364ZM86.7337 5.88068Q86.3459 5.88068 86.0625 5.65803Q85.7791 5.43537 85.6257 5.05185Q85.4723 4.66832 85.4723 4.18466Q85.4723 3.70313 85.6278 3.3196Q85.7834 2.93608 86.0668 2.71236Q86.3501 2.48864 86.7337 2.48864Q87.1236 2.48864 87.4187 2.72727Q87.7138 2.96591 87.8416 3.375L87.8587 3.375L87.8587 1.44886L87.995 1.44886L87.995 5.8125L87.8587 5.8125L87.8587 4.99432L87.8416 4.99432Q87.7074 5.39915 87.4176 5.63991Q87.1278 5.88068 86.7337 5.88068ZM86.7337 5.74432Q87.081 5.74432 87.3335 5.53871Q87.5859 5.3331 87.7223 4.98047Q87.8587 4.62784 87.8587 4.18466Q87.8587 3.74148 87.7212 3.38885Q87.5838 3.03622 87.3313 2.83061Q87.0788 2.625 86.7337 2.625Q86.3885 2.625 86.136 2.83061Q85.8835 3.03622 85.7461 3.38885Q85.6087 3.74148 85.6087 4.18466Q85.6087 4.62784 85.745 4.98047Q85.8814 5.3331 86.1339 5.53871Q86.3864 5.74432 86.7337 5.74432ZM93.0575 4.73864L93.0575 2.53977L93.1939 2.53977L93.1939 5.8125L93.0575 5.8125L93.0575 5.29261L93.0405 5.29261Q92.9254 5.5483 92.6623 5.7017Q92.3991 5.85511 92.0604 5.85511Q91.7322 5.85511 91.4808 5.71236Q91.2294 5.5696 91.0866 5.31818Q90.9439 5.06676 90.9439 4.73864L90.9439 2.53977L91.0803 2.53977L91.0803 4.73864Q91.0803 5.1733 91.353 5.44602Q91.6257 5.71875 92.0604 5.71875Q92.3501 5.71875 92.5749 5.59304Q92.7997 5.46733 92.9286 5.24574Q93.0575 5.02415 93.0575 4.73864ZM96.3132 3.23011L96.1768 3.2642Q95.9766 2.625 95.3075 2.625Q94.9155 2.625 94.6726 2.82422Q94.4297 3.02344 94.4297 3.34943Q94.4297 3.87358 95.0945 4.03977L95.6058 4.16761Q95.9659 4.2571 96.1523 4.47017Q96.3388 4.68324 96.3388 4.9858Q96.3388 5.38636 96.0341 5.63352Q95.7294 5.88068 95.2479 5.88068Q94.8111 5.88068 94.5341 5.66761Q94.2571 5.45455 94.174 5.0625L94.3104 5.02841Q94.4574 5.74432 95.2479 5.74432Q95.674 5.74432 95.9382 5.53551Q96.2024 5.3267 96.2024 4.9858Q96.2024 4.46165 95.5717 4.30398L95.0604 4.17614Q94.6832 4.08239 94.4883 3.86932Q94.2933 3.65625 94.2933 3.34943Q94.2933 2.96378 94.5767 2.72621Q94.8601 2.48864 95.3075 2.48864Q96.0724 2.48864 96.3132 3.23011ZM98.5376 5.88068Q98.1094 5.88068 97.7887 5.65696Q97.468 5.43324 97.2912 5.04972Q97.1143 4.66619 97.1143 4.18466Q97.1143 3.70313 97.2923 3.3196Q97.4702 2.93608 97.777 2.71236Q98.0838 2.48864 98.4695 2.48864Q98.8508 2.48864 99.1534 2.70064Q99.456 2.91264 99.6317 3.2642Q99.8075 3.61577 99.8075 4.03977L99.8075 4.17614L97.2507 4.17614Q97.2528 4.6044 97.4031 4.96023Q97.5533 5.31605 97.8398 5.53018Q98.1264 5.74432 98.5376 5.74432Q98.8402 5.74432 99.0458 5.63778Q99.2514 5.53125 99.3761 5.39276Q99.5007 5.25426 99.5604 5.15625L99.6712 5.23295Q99.5987 5.35653 99.4538 5.50781Q99.3089 5.65909 99.0831 5.76989Q98.8572 5.88068 98.5376 5.88068ZM97.255 4.03977L99.6712 4.03977Q99.6712 3.6456 99.5092 3.32493Q99.3473 3.00426 99.0746 2.81463Q98.8018 2.625 98.4695 2.625Q98.1477 2.625 97.8825 2.8093Q97.6172 2.99361 97.451 3.31321Q97.2848 3.63281 97.255 4.03977ZM101.896 2.53977L101.896 2.67614L101.188 2.67614L101.184 5.8125L101.052 5.8125L101.052 2.67614L100.6 2.67614L100.6 2.53977L101.052 2.53977L101.052 2.00284Q101.052 1.65767 101.276 1.45526Q101.499 1.25284 101.802 1.25284Q101.879 1.25284 101.94 1.26563Q102.002 1.27841 102.062 1.29972L102.019 1.42756Q101.966 1.41051 101.915 1.39986Q101.864 1.3892 101.802 1.3892Q101.557 1.3892 101.373 1.55327Q101.188 1.71733 101.188 2.00284L101.188 2.53977L101.896 2.53977ZM104.87 4.73864L104.87 2.53977L105.006 2.53977L105.006 5.8125L104.87 5.8125L104.87 5.29261L104.853 5.29261Q104.738 5.5483 104.475 5.7017Q104.212 5.85511 103.873 5.85511Q103.545 5.85511 103.293 5.71236Q103.042 5.5696 102.899 5.31818Q102.756 5.06676 102.756 4.73864L102.756 2.53977L102.893 2.53977L102.893 4.73864Q102.893 5.1733 103.165 5.44602Q103.438 5.71875 103.873 5.71875Q104.163 5.71875 104.387 5.59304Q104.612 5.46733 104.741 5.24574Q104.87 5.02415 104.87 4.73864ZM106.302 1.44886L106.302 5.8125L106.165 5.8125L106.165 1.44886L106.302 1.44886ZM109.967 5.88068Q109.698 5.88068 109.471 5.76989Q109.244 5.65909 109.107 5.44602Q108.969 5.23295 108.969 4.92614Q108.969 4.70455 109.069 4.52024Q109.168 4.33594 109.435 4.2049Q109.702 4.07386 110.205 4.0142Q110.431 3.98864 110.631 3.95455Q110.832 3.92045 110.957 3.85227Q111.083 3.78409 111.083 3.65625L111.083 3.46023Q111.083 3.0831 110.83 2.85405Q110.576 2.625 110.154 2.625Q109.809 2.625 109.551 2.77734Q109.293 2.92969 109.191 3.20455L109.063 3.15341Q109.178 2.84659 109.474 2.66761Q109.771 2.48864 110.154 2.48864Q110.653 2.48864 110.936 2.76669Q111.219 3.04474 111.219 3.46023L111.219 5.8125L111.083 5.8125L111.083 5.14773L111.066 5.14773Q110.913 5.48011 110.625 5.6804Q110.337 5.88068 109.967 5.88068ZM109.967 5.74432Q110.278 5.74432 110.531 5.57706Q110.785 5.4098 110.934 5.11044Q111.083 4.81108 111.083 4.41477L111.083 3.92045Q110.962 4.00994 110.75 4.06001Q110.538 4.11009 110.256 4.14205Q109.817 4.19318 109.566 4.29759Q109.315 4.40199 109.21 4.55966Q109.106 4.71733 109.106 4.92614Q109.106 5.29688 109.354 5.5206Q109.602 5.74432 109.967 5.74432ZM112.396 7.03977L112.396 2.53977L112.532 2.53977L112.532 3.375L112.549 3.375Q112.681 2.96804 112.972 2.72834Q113.263 2.48864 113.657 2.48864Q114.045 2.48864 114.327 2.71129Q114.609 2.93395 114.764 3.31747Q114.918 3.70099 114.918 4.18466Q114.918 4.66619 114.763 5.04972Q114.607 5.43324 114.324 5.65696Q114.04 5.88068 113.657 5.88068Q113.267 5.88068 112.972 5.64205Q112.677 5.40341 112.549 4.99432L112.532 4.99432L112.532 7.03977L112.396 7.03977ZM112.532 4.18466Q112.532 4.62784 112.669 4.98047Q112.807 5.3331 113.059 5.53871Q113.312 5.74432 113.657 5.74432Q114.002 5.74432 114.255 5.53871Q114.507 5.3331 114.645 4.98047Q114.782 4.62784 114.782 4.18466Q114.782 3.74148 114.646 3.38885Q114.509 3.03622 114.257 2.83061Q114.004 2.625 113.657 2.625Q113.31 2.625 113.057 2.83061Q112.805 3.03622 112.668 3.38885Q112.532 3.74148 112.532 4.18466ZM115.881 7.03977L115.881 2.53977L116.018 2.53977L116.018 3.375L116.035 3.375Q116.167 2.96804 116.458 2.72834Q116.749 2.48864 117.143 2.48864Q117.531 2.48864 117.813 2.71129Q118.095 2.93395 118.25 3.31747Q118.404 3.70099 118.404 4.18466Q118.404 4.66619 118.249 5.04972Q118.093 5.43324 117.81 5.65696Q117.526 5.88068 117.143 5.88068Q116.753 5.88068 116.458 5.64205Q116.163 5.40341 116.035 4.99432L116.018 4.99432L116.018 7.03977L115.881 7.03977ZM116.018 4.18466Q116.018 4.62784 116.155 4.98047Q116.293 5.3331 116.545 5.53871Q116.798 5.74432 117.143 5.74432Q117.488 5.74432 117.74 5.53871Q117.993 5.3331 118.13 4.98047Q118.268 4.62784 118.268 4.18466Q118.268 3.74148 118.131 3.38885Q117.995 3.03622 117.743 2.83061Q117.49 2.625 117.143 2.625Q116.795 2.625 116.543 2.83061Q116.29 3.03622 116.154 3.38885Q116.018 3.74148 116.018 4.18466ZM121.327 3.23011L121.191 3.2642Q120.991 2.625 120.322 2.625Q119.93 2.625 119.687 2.82422Q119.444 3.02344 119.444 3.34943Q119.444 3.87358 120.109 4.03977L120.62 4.16761Q120.98 4.2571 121.167 4.47017Q121.353 4.68324 121.353 4.9858Q121.353 5.38636 121.048 5.63352Q120.744 5.88068 120.262 5.88068Q119.825 5.88068 119.548 5.66761Q119.271 5.45455 119.188 5.0625L119.325 5.02841Q119.472 5.74432 120.262 5.74432Q120.688 5.74432 120.952 5.53551Q121.217 5.3267 121.217 4.9858Q121.217 4.46165 120.586 4.30398L120.075 4.17614Q119.697 4.08239 119.502 3.86932Q119.308 3.65625 119.308 3.34943Q119.308 2.96378 119.591 2.72621Q119.874 2.48864 120.322 2.48864Q121.087 2.48864 121.327 3.23011ZM125.188 5.88068Q124.792 5.88068 124.482 5.65803Q124.172 5.43537 123.994 5.05185Q123.816 4.66832 123.816 4.18466Q123.816 3.70526 123.993 3.32067Q124.17 2.93608 124.48 2.71236Q124.79 2.48864 125.188 2.48864Q125.482 2.48864 125.728 2.61541Q125.974 2.74219 126.141 2.96911Q126.307 3.19602 126.356 3.49432L126.211 3.49432Q126.145 3.10866 125.86 2.86683Q125.576 2.625 125.188 2.625Q124.837 2.625 124.556 2.82848Q124.276 3.03196 124.114 3.38459Q123.952 3.73722 123.952 4.18466Q123.952 4.61932 124.109 4.97301Q124.266 5.3267 124.545 5.53551Q124.824 5.74432 125.188 5.74432Q125.58 5.74432 125.87 5.50142Q126.16 5.25852 126.219 4.85795L126.364 4.85795Q126.317 5.1669 126.151 5.39702Q125.985 5.62713 125.736 5.75391Q125.487 5.88068 125.188 5.88068ZM127.327 5.8125L127.327 2.53977L127.464 2.53977L127.464 3.05966L127.481 3.05966Q127.596 2.80398 127.859 2.65057Q128.122 2.49716 128.461 2.49716L128.529 2.49716L128.529 2.63352L128.461 2.63352Q128.171 2.63352 127.946 2.75923Q127.722 2.88494 127.593 3.10653Q127.464 3.32813 127.464 3.61364L127.464 5.8125L127.327 5.8125ZM130.404 5.88068Q129.976 5.88068 129.655 5.65696Q129.335 5.43324 129.158 5.04972Q128.981 4.66619 128.981 4.18466Q128.981 3.70313 129.159 3.3196Q129.337 2.93608 129.643 2.71236Q129.95 2.48864 130.336 2.48864Q130.717 2.48864 131.02 2.70064Q131.322 2.91264 131.498 3.2642Q131.674 3.61577 131.674 4.03977L131.674 4.17614L129.117 4.17614Q129.119 4.6044 129.27 4.96023Q129.42 5.31605 129.706 5.53018Q129.993 5.74432 130.404 5.74432Q130.707 5.74432 130.912 5.63778Q131.118 5.53125 131.243 5.39276Q131.367 5.25426 131.427 5.15625L131.538 5.23295Q131.465 5.35653 131.32 5.50781Q131.175 5.65909 130.95 5.76989Q130.724 5.88068 130.404 5.88068ZM129.121 4.03977L131.538 4.03977Q131.538 3.6456 131.376 3.32493Q131.214 3.00426 130.941 2.81463Q130.668 2.625 130.336 2.625Q130.014 2.625 129.749 2.8093Q129.484 2.99361 129.317 3.31321Q129.151 3.63281 129.121 4.03977ZM133.455 5.88068Q133.187 5.88068 132.96 5.76989Q132.733 5.65909 132.596 5.44602Q132.458 5.23295 132.458 4.92614Q132.458 4.70455 132.557 4.52024Q132.656 4.33594 132.924 4.2049Q133.191 4.07386 133.694 4.0142Q133.92 3.98864 134.12 3.95455Q134.32 3.92045 134.446 3.85227Q134.572 3.78409 134.572 3.65625L134.572 3.46023Q134.572 3.0831 134.318 2.85405Q134.065 2.625 133.643 2.625Q133.298 2.625 133.04 2.77734Q132.782 2.92969 132.68 3.20455L132.552 3.15341Q132.667 2.84659 132.963 2.66761Q133.259 2.48864 133.643 2.48864Q134.141 2.48864 134.425 2.76669Q134.708 3.04474 134.708 3.46023L134.708 5.8125L134.572 5.8125L134.572 5.14773L134.555 5.14773Q134.401 5.48011 134.114 5.6804Q133.826 5.88068 133.455 5.88068ZM133.455 5.74432Q133.766 5.74432 134.02 5.57706Q134.273 5.4098 134.423 5.11044Q134.572 4.81108 134.572 4.41477L134.572 3.92045Q134.45 4.00994 134.238 4.06001Q134.026 4.11009 133.745 4.14205Q133.306 4.19318 133.055 4.29759Q132.803 4.40199 132.699 4.55966Q132.594 4.71733 132.594 4.92614Q132.594 5.29688 132.843 5.5206Q133.091 5.74432 133.455 5.74432ZM136.907 2.53977L136.907 2.67614L136.225 2.67614L136.225 5.12216Q136.225 5.40767 136.409 5.57173Q136.594 5.7358 136.839 5.7358Q136.945 5.7358 137.06 5.69318L137.103 5.82102Q137.039 5.84446 136.977 5.85831Q136.915 5.87216 136.839 5.87216Q136.536 5.87216 136.312 5.66974Q136.089 5.46733 136.089 5.12216L136.089 2.67614L135.611 2.67614L135.611 2.53977L136.089 2.53977L136.089 1.75568L136.225 1.75568L136.225 2.53977L136.907 2.53977ZM139.165 5.88068Q138.737 5.88068 138.417 5.65696Q138.096 5.43324 137.919 5.04972Q137.742 4.66619 137.742 4.18466Q137.742 3.70313 137.92 3.3196Q138.098 2.93608 138.405 2.71236Q138.712 2.48864 139.097 2.48864Q139.479 2.48864 139.781 2.70064Q140.084 2.91264 140.26 3.2642Q140.435 3.61577 140.435 4.03977L140.435 4.17614L137.879 4.17614Q137.881 4.6044 138.031 4.96023Q138.181 5.31605 138.468 5.53018Q138.754 5.74432 139.165 5.74432Q139.468 5.74432 139.674 5.63778Q139.879 5.53125 140.004 5.39276Q140.129 5.25426 140.188 5.15625L140.299 5.23295Q140.227 5.35653 140.082 5.50781Q139.937 5.65909 139.711 5.76989Q139.485 5.88068 139.165 5.88068ZM137.883 4.03977L140.299 4.03977Q140.299 3.6456 140.137 3.32493Q139.975 3.00426 139.702 2.81463Q139.43 2.625 139.097 2.625Q138.776 2.625 138.51 2.8093Q138.245 2.99361 138.079 3.31321Q137.913 3.63281 137.883 4.03977ZM142.464 5.88068Q142.076 5.88068 141.793 5.65803Q141.509 5.43537 141.356 5.05185Q141.202 4.66832 141.202 4.18466Q141.202 3.70313 141.358 3.3196Q141.513 2.93608 141.797 2.71236Q142.08 2.48864 142.464 2.48864Q142.854 2.48864 143.149 2.72727Q143.444 2.96591 143.572 3.375L143.589 3.375L143.589 1.44886L143.725 1.44886L143.725 5.8125L143.589 5.8125L143.589 4.99432L143.572 4.99432Q143.437 5.39915 143.148 5.63991Q142.858 5.88068 142.464 5.88068ZM142.464 5.74432Q142.811 5.74432 143.064 5.53871Q143.316 5.3331 143.452 4.98047Q143.589 4.62784 143.589 4.18466Q143.589 3.74148 143.451 3.38885Q143.314 3.03622 143.061 2.83061Q142.809 2.625 142.464 2.625Q142.119 2.625 141.866 2.83061Q141.614 3.03622 141.476 3.38885Q141.339 3.74148 141.339 4.18466Q141.339 4.62784 141.475 4.98047Q141.611 5.3331 141.864 5.53871Q142.116 5.74432 142.464 5.74432ZM147.799 2.53977L147.799 2.67614L147.092 2.67614L147.087 5.8125L146.955 5.8125L146.955 2.67614L146.504 2.67614L146.504 2.53977L146.955 2.53977L146.955 2.00284Q146.955 1.65767 147.179 1.45526Q147.403 1.25284 147.705 1.25284Q147.782 1.25284 147.844 1.26563Q147.906 1.27841 147.965 1.29972L147.923 1.42756Q147.869 1.41051 147.818 1.39986Q147.767 1.3892 147.705 1.3892Q147.46 1.3892 147.276 1.55327Q147.092 1.71733 147.092 2.00284L147.092 2.53977L147.799 2.53977ZM149.682 5.88068Q149.297 5.88068 148.99 5.65803Q148.683 5.43537 148.505 5.05078Q148.327 4.66619 148.327 4.18466Q148.327 3.70099 148.505 3.31747Q148.683 2.93395 148.99 2.71129Q149.297 2.48864 149.682 2.48864Q150.068 2.48864 150.374 2.71236Q150.68 2.93608 150.859 3.3196Q151.038 3.70313 151.038 4.18466Q151.038 4.66619 150.86 5.05078Q150.682 5.43537 150.375 5.65803Q150.068 5.88068 149.682 5.88068ZM149.682 5.74432Q150.03 5.74432 150.306 5.53977Q150.582 5.33523 150.741 4.98153Q150.901 4.62784 150.901 4.18466Q150.901 3.74148 150.74 3.38885Q150.58 3.03622 150.305 2.83061Q150.03 2.625 149.682 2.625Q149.337 2.625 149.061 2.83061Q148.785 3.03622 148.625 3.38885Q148.464 3.74148 148.464 4.18466Q148.464 4.62784 148.624 4.98153Q148.783 5.33523 149.059 5.53977Q149.335 5.74432 149.682 5.74432ZM152.001 5.8125L152.001 2.53977L152.137 2.53977L152.137 3.05966L152.154 3.05966Q152.269 2.80398 152.532 2.65057Q152.795 2.49716 153.134 2.49716L153.202 2.49716L153.202 2.63352L153.134 2.63352Q152.844 2.63352 152.62 2.75923Q152.395 2.88494 152.266 3.10653Q152.137 3.32813 152.137 3.61364L152.137 5.8125L152.001 5.8125ZM155.789 7.03977Q155.619 7.03977 155.423 6.95455L155.474 6.83523Q156.115 7.11009 156.386 6.35795L156.56 5.87216L155.367 2.53977L155.512 2.53977L156.62 5.64205L156.637 5.64205L157.745 2.53977L157.89 2.53977L156.513 6.40909Q156.288 7.03977 155.789 7.03977ZM159.816 5.88068Q159.43 5.88068 159.124 5.65803Q158.817 5.43537 158.639 5.05078Q158.461 4.66619 158.461 4.18466Q158.461 3.70099 158.639 3.31747Q158.817 2.93395 159.124 2.71129Q159.43 2.48864 159.816 2.48864Q160.202 2.48864 160.507 2.71236Q160.813 2.93608 160.992 3.3196Q161.171 3.70313 161.171 4.18466Q161.171 4.66619 160.993 5.05078Q160.815 5.43537 160.508 5.65803Q160.202 5.88068 159.816 5.88068ZM159.816 5.74432Q160.163 5.74432 160.439 5.53977Q160.715 5.33523 160.875 4.98153Q161.035 4.62784 161.035 4.18466Q161.035 3.74148 160.874 3.38885Q160.713 3.03622 160.438 2.83061Q160.163 2.625 159.816 2.625Q159.471 2.625 159.195 2.83061Q158.919 3.03622 158.758 3.38885Q158.597 3.74148 158.597 4.18466Q158.597 4.62784 158.757 4.98153Q158.917 5.33523 159.193 5.53977Q159.469 5.74432 159.816 5.74432ZM164.248 4.73864L164.248 2.53977L164.384 2.53977L164.384 5.8125L164.248 5.8125L164.248 5.29261L164.231 5.29261Q164.116 5.5483 163.853 5.7017Q163.589 5.85511 163.251 5.85511Q162.923 5.85511 162.671 5.71236Q162.42 5.5696 162.277 5.31818Q162.134 5.06676 162.134 4.73864L162.134 2.53977L162.271 2.53977L162.271 4.73864Q162.271 5.1733 162.543 5.44602Q162.816 5.71875 163.251 5.71875Q163.54 5.71875 163.765 5.59304Q163.99 5.46733 164.119 5.24574Q164.248 5.02415 164.248 4.73864ZM165.722 5.83807Q165.658 5.83807 165.614 5.79332Q165.569 5.74858 165.569 5.68466Q165.569 5.62074 165.614 5.57599Q165.658 5.53125 165.722 5.53125Q165.786 5.53125 165.831 5.57599Q165.876 5.62074 165.876 5.68466Q165.876 5.74858 165.831 5.79332Q165.786 5.83807 165.722 5.83807Z" fill="#FDFDFD" transform="translate(67 35)" />
    <g transform="translate(26 2)">
      <g>
        <g>
          <rect width="34" height="34.997" fill="#930606" fill-rule="evenodd" />
          <g transform="translate(4.952 7.327)">
            <path d="M5.89228 0.435733C5.89228 0.435733 2.39642 20.8055 2.39642 20.8055L0 20.3698L3.49586 0C3.49586 0 5.89228 0.435733 5.89228 0.435733Z" fill="#FFFFFF" transform="translate(3.719 0.016)" />
            <path d="M5.53794 0.390657C5.53794 0.390657 2.40372 20.8225 2.40372 20.8225L0 20.4318L3.13422 0C3.13422 0 5.53794 0.390657 5.53794 0.390657Z" fill="#FFFFFF" transform="translate(7.628 0.008)" />
            <path d="M5.20125 0.348085C5.20125 0.348085 2.40858 20.8213 2.40858 20.8213L0 20.4732L2.79267 0C2.79267 0 5.20125 0.348085 5.20125 0.348085Z" fill="#FFFFFF" transform="translate(15.227 0)" />
            <path d="M4.53032 0.262943C4.53032 0.262943 2.42074 20.8395 2.42074 20.8395L0 20.5766L2.10957 0C2.10957 0 4.53032 0.262943 4.53032 0.262943Z" fill="#FFFFFF" transform="translate(11.835 0.009)" />
            <path d="M5.53794 0.390657C5.53794 0.390657 2.40372 20.8225 2.40372 20.8225L0 20.4318L3.13422 0C3.13422 0 5.53794 0.390657 5.53794 0.390657Z" fill="#FFFFFF" transform="translate(18.784 0.008)" />
            <path d="M5.53794 0.390657C5.53794 0.390657 2.40372 20.8225 2.40372 20.8225L0 20.4318L3.13422 0C3.13422 0 5.53794 0.390657 5.53794 0.390657Z" fill="#FFFFFF" transform="translate(22.503 0.008)" />
            <path d="M5.89228 0.435733C5.89228 0.435733 2.39642 20.8055 2.39642 20.8055L0 20.3698L3.49586 0C3.49586 0 5.89228 0.435733 5.89228 0.435733Z" fill="#FFFFFF" transform="translate(0 0.016)" />
          </g>
        </g>
      </g>
    </g>
    <g transform="translate(32 37)">
      <path d="M0.568182 4.84375L0.568182 1.20739L2.5071 1.20739L2.5071 1.32102L0.681818 1.32102L0.681818 2.96875L2.40057 2.96875L2.40057 3.08239L0.681818 3.08239L0.681818 4.73011L2.55682 4.73011L2.55682 4.84375L0.568182 4.84375ZM3.48722 1.20739L3.58665 1.20739L5.07102 4.6733L5.08523 4.6733L6.5696 1.20739L6.66903 1.20739L6.66903 4.84375L6.5554 4.84375L6.5554 1.5625L6.54119 1.5625L5.13494 4.84375L5.02131 4.84375L3.61506 1.5625L3.60085 1.5625L3.60085 4.84375L3.48722 4.84375L3.48722 1.20739ZM7.8054 4.84375L7.8054 1.20739L7.91903 1.20739L7.91903 4.73011L9.73722 4.73011L9.73722 4.84375L7.8054 4.84375ZM11.7401 4.84375L11.6193 4.84375L12.919 1.20739L13.0753 1.20739L14.375 4.84375L14.2543 4.84375L13.8139 3.61506L12.1804 3.61506L11.7401 4.84375ZM12.2195 3.50142L13.7749 3.50142L13.0043 1.34943L12.9901 1.34943L12.2195 3.50142ZM15.1065 4.84375L15.1065 1.20739L16.1719 1.20739Q16.4773 1.20739 16.7125 1.34411Q16.9478 1.48082 17.0819 1.72053Q17.2159 1.96023 17.2159 2.27273Q17.2159 2.58168 17.0819 2.82049Q16.9478 3.0593 16.7125 3.19513Q16.4773 3.33097 16.1719 3.33097L15.2202 3.33097L15.2202 4.84375L15.1065 4.84375ZM15.2202 3.21733L16.1719 3.21733Q16.4453 3.21733 16.6548 3.09659Q16.8643 2.97585 16.9833 2.76278Q17.1023 2.54972 17.1023 2.27273Q17.1023 1.99396 16.9833 1.77912Q16.8643 1.56428 16.6548 1.44265Q16.4453 1.32102 16.1719 1.32102L15.2202 1.32102L15.2202 3.21733ZM18.1392 4.84375L18.1392 1.20739L19.2045 1.20739Q19.5099 1.20739 19.7452 1.34411Q19.9805 1.48082 20.1145 1.72053Q20.2486 1.96023 20.2486 2.27273Q20.2486 2.58168 20.1145 2.82049Q19.9805 3.0593 19.7452 3.19513Q19.5099 3.33097 19.2045 3.33097L18.2528 3.33097L18.2528 4.84375L18.1392 4.84375ZM18.2528 3.21733L19.2045 3.21733Q19.478 3.21733 19.6875 3.09659Q19.897 2.97585 20.016 2.76278Q20.1349 2.54972 20.1349 2.27273Q20.1349 1.99396 20.016 1.77912Q19.897 1.56428 19.6875 1.44265Q19.478 1.32102 19.2045 1.32102L18.2528 1.32102L18.2528 3.21733Z" fill="#100D0D" />
      <path d="M3.14631 2.34375Q3.11435 2.15732 3.0158 1.96822Q2.91726 1.77912 2.75479 1.62109Q2.59233 1.46307 2.37038 1.36719Q2.14844 1.27131 1.8679 1.27131Q1.45064 1.27131 1.13725 1.49059Q0.823864 1.70987 0.649858 2.10494Q0.475852 2.5 0.475852 3.02557Q0.475852 3.54403 0.648082 3.93999Q0.820312 4.33594 1.13636 4.55788Q1.45241 4.77983 1.8821 4.77983Q2.25675 4.77983 2.54794 4.60494Q2.83913 4.43004 3.00604 4.10156Q3.17294 3.77308 3.17472 3.30966L1.91761 3.30966L1.91761 3.19602L3.28835 3.19602L3.28835 3.30966Q3.28835 3.80682 3.10724 4.16104Q2.92614 4.51527 2.60831 4.70437Q2.29048 4.89347 1.8821 4.89347Q1.42045 4.89347 1.07866 4.6582Q0.736861 4.42294 0.549538 4.00213Q0.362216 3.58132 0.362216 3.02557Q0.362216 2.46626 0.550426 2.04545Q0.738636 1.62464 1.07777 1.39116Q1.4169 1.15767 1.8679 1.15767Q2.1875 1.15767 2.43253 1.26776Q2.67756 1.37784 2.85067 1.55629Q3.02379 1.73473 3.12589 1.94158Q3.22798 2.14844 3.25994 2.34375L3.14631 2.34375ZM3.86364 4.84375L3.7429 4.84375L5.04261 1.20739L5.19886 1.20739L6.49858 4.84375L6.37784 4.84375L5.9375 3.61506L4.30398 3.61506L3.86364 4.84375ZM4.34304 3.50142L5.89844 3.50142L5.12784 1.34943L5.11364 1.34943L4.34304 3.50142ZM7.23011 4.84375L7.23011 1.20739L7.34375 1.20739L7.34375 4.73011L9.16193 4.73011L9.16193 4.84375L7.23011 4.84375ZM10.0426 4.84375L10.0426 1.20739L10.1563 1.20739L10.1563 4.73011L11.9744 4.73011L11.9744 4.84375L10.0426 4.84375ZM12.8551 4.84375L12.8551 1.20739L14.794 1.20739L14.794 1.32102L12.9688 1.32102L12.9688 2.96875L14.6875 2.96875L14.6875 3.08239L12.9688 3.08239L12.9688 4.73011L14.8438 4.73011L14.8438 4.84375L12.8551 4.84375ZM15.7741 4.84375L15.7741 1.20739L16.8395 1.20739Q17.1449 1.20739 17.3801 1.337Q17.6154 1.46662 17.7495 1.69922Q17.8835 1.93182 17.8835 2.24432Q17.8835 2.61719 17.6909 2.87553Q17.4982 3.13388 17.1804 3.22798L18.054 4.84375L17.9261 4.84375L17.0668 3.25462Q16.9567 3.27415 16.8395 3.27415L15.8878 3.27415L15.8878 4.84375L15.7741 4.84375ZM15.8878 3.16051L16.8395 3.16051Q17.1129 3.16051 17.3224 3.04688Q17.532 2.93324 17.6509 2.72727Q17.7699 2.52131 17.7699 2.24432Q17.7699 1.96555 17.6509 1.75781Q17.532 1.55007 17.3224 1.43555Q17.1129 1.32102 16.8395 1.32102L15.8878 1.32102L15.8878 3.16051ZM18.2813 1.20739L18.4233 1.20739L19.6378 2.99006L19.652 2.99006L20.8665 1.20739L21.0085 1.20739L19.7017 3.1179L19.7017 4.84375L19.5881 4.84375L19.5881 3.1179L18.2813 1.20739Z" transform="translate(0 6.051)" fill="#100D0D" />
    </g>
    <path d="M13.1046 0L26.2091 108.92L-9.53674e-07 108.92L13.1046 0Z" fill="#4CF051" fill-rule="evenodd" transform="matrix(0.97 -0.242 0.242 0.97 -22.4 -38.152)" />
    <path d="M5.256 8.127Q5.256 8.235 4.905 8.235Q4.842 8.235 4.0635 7.2675Q3.285 6.3 2.781 5.616Q2.709 5.517 2.322 4.959Q1.755 4.131 1.62 3.96L1.602 4.653L1.593 5.328Q1.593 5.967 1.5795 6.714Q1.566 7.461 1.548 7.902Q1.539 8.01 1.4535 8.1C1.3965 8.16 1.338 8.19 1.278 8.19C1.212 8.19 1.1655 8.1705 1.1385 8.1315Q1.098 8.073 1.098 7.902Q1.098 7.794 1.134 7.236Q1.215 6.201 1.215 5.499Q1.215 4.941 1.233 4.4415Q1.251 3.942 1.251 3.825L1.26 3.564L1.26 3.537Q1.26 3.438 1.2915 3.3795Q1.323 3.321 1.422 3.321L1.467 3.321Q1.566 3.321 1.8585 3.6765Q2.151 4.032 2.601 4.644Q2.7 4.77 2.79 4.8915Q2.88 5.013 2.961 5.121Q3.474 5.778 3.501 5.814Q4.779 7.443 4.896 7.668Q4.878 7.596 4.833 7.335Q4.788 7.074 4.7475 6.651Q4.707 6.228 4.707 5.778Q4.707 4.977 4.554 3.663Q4.509 3.231 4.509 3.132Q4.509 2.79 4.896 2.79Q4.986 2.79 5.031 2.9745Q5.076 3.159 5.094 3.753Q5.112 4.347 5.112 5.652Q5.112 6.066 5.1435 6.462Q5.175 6.858 5.202 7.164Q5.247 7.587 5.247 7.803L5.256 8.127ZM11.331 2.448Q11.331 2.556 11.178 2.637Q10.935 2.772 10.4175 2.925Q9.9 3.078 9.567 3.141Q9.045 3.24 8.5185 3.2985Q7.992 3.357 7.839 3.366Q7.848 3.888 7.866 4.4415Q7.884 4.995 7.893 5.202Q8.244 5.157 8.946 5.031L9.288 4.977Q9.855 4.878 10.161 4.617Q10.323 4.491 10.395 4.491Q10.458 4.491 10.4985 4.5585Q10.539 4.626 10.539 4.698Q10.539 4.86 10.1745 5.0535Q9.81 5.247 9.369 5.337Q9 5.418 8.541 5.49Q8.082 5.562 7.938 5.58Q7.992 7.119 8.253 7.866Q8.514 7.956 8.766 7.9965Q9.018 8.037 9.414 8.037Q9.81 8.037 10.17 7.9335Q10.53 7.83 10.7505 7.677Q10.971 7.524 10.971 7.389Q10.971 7.317 10.944 7.2495Q10.917 7.182 10.872 7.11Q10.854 7.083 10.8135 7.0245Q10.773 6.966 10.773 6.93Q10.773 6.84 10.971 6.84Q11.115 6.84 11.2185 6.9615Q11.322 7.083 11.322 7.227Q11.322 7.515 11.0655 7.794Q10.809 8.073 10.3635 8.2485Q9.918 8.424 9.378 8.424Q8.829 8.424 8.478 8.3655Q8.127 8.307 7.947 8.136Q7.731 7.893 7.6455 7.29Q7.56 6.687 7.497 5.679Q7.326 5.724 7.1145 5.7555Q6.903 5.787 6.795 5.787Q6.687 5.787 6.6195 5.7195Q6.552 5.652 6.552 5.553Q6.552 5.49 6.5745 5.445Q6.597 5.4 6.642 5.391Q6.939 5.355 7.074 5.346L7.461 5.301Q7.425 4.14 7.389 3.411Q7.254 3.411 7.173 3.42L6.759 3.429Q6.678 3.429 6.633 3.384Q6.588 3.339 6.588 3.285Q6.588 3.069 6.876 2.997Q6.984 2.979 7.1505 2.9565Q7.317 2.934 7.371 2.934Q7.542 2.745 7.749 2.745Q7.785 2.745 7.8075 2.8035Q7.83 2.862 7.83 2.889Q8.424 2.862 9.243 2.754Q9.783 2.682 10.908 2.412L11.241 2.34Q11.331 2.34 11.331 2.448ZM17.325 2.997Q17.325 3.645 17.271 4.383Q17.217 5.121 17.154 5.688Q17.109 6.174 16.983 6.759Q16.857 7.344 16.677 7.7625C16.557 8.0415 16.434 8.181 16.308 8.181C16.23 8.181 16.14 8.046 16.038 7.776Q15.885 7.371 15.642 6.588L15.489 6.084Q15.327 5.562 15.129 5.0265Q14.931 4.491 14.823 4.266L14.436 5.589Q13.905 7.407 13.662 8.082Q13.653 8.1 13.6125 8.2125Q13.572 8.325 13.473 8.3835Q13.374 8.442 13.212 8.442Q13.176 8.442 13.0635 7.974Q12.951 7.506 12.834 6.939Q12.537 5.652 12.519 5.58Q12.303 4.698 12.1635 4.257Q12.024 3.816 11.916 3.726Q11.763 3.609 11.763 3.474Q11.763 3.411 11.8575 3.3345Q11.952 3.258 12.078 3.258Q12.186 3.258 12.249 3.2715Q12.312 3.285 12.348 3.348Q12.474 3.555 12.834 5.094Q12.87 5.211 12.924 5.445Q13.113 6.228 13.239 6.795Q13.311 7.083 13.3605 7.3125Q13.41 7.542 13.446 7.659Q13.455 7.578 13.626 7.029Q13.923 6.111 14.085 5.472Q14.256 4.824 14.4 4.3965Q14.544 3.969 14.625 3.861Q14.679 3.798 14.7735 3.7485Q14.868 3.699 14.958 3.699Q15.021 3.699 15.057 3.7395Q15.093 3.78 15.12 3.843Q15.147 3.906 15.174 3.951Q15.264 4.131 15.4665 4.707Q15.669 5.283 15.831 5.841L15.957 6.255Q16.245 7.254 16.38 7.587Q16.695 6.957 16.812 5.481Q16.875 4.923 16.875 3.906L16.866 2.997Q16.866 2.88 16.893 2.8305Q16.92 2.781 17.019 2.781Q17.127 2.781 17.226 2.8485Q17.325 2.916 17.325 2.997Z" fill="#B21D1D" transform="matrix(0.891 -0.454 0.454 0.891 -1.516 32)" />
  </g>
</svg>